<svg width="97" height="97" viewBox="0 0 97 97" fill="none" xmlns="http://www.w3.org/2000/svg">
<g clip-path="url(#clip0_360_3736)">
<path d="M97 24.9429C97 11.6862 86.1341 0.923828 72.75 0.923828C59.3659 0.923828 48.5 11.6862 48.5 24.9429C48.5 38.1995 59.3659 48.9619 72.75 48.9619C86.1341 48.9619 97 38.1995 97 24.9429ZM72.75 36.0286C66.5476 36.0286 61.5577 31.0862 61.5577 24.9429C61.5577 18.7995 66.5476 13.8572 72.75 13.8572C78.9524 13.8572 83.9423 18.7995 83.9423 24.9429C83.9423 31.0862 78.9524 36.0286 72.75 36.0286Z" fill="#2E2E2E"/>
<path d="M72.75 48.9619C59.3659 48.9619 48.5 59.7243 48.5 72.981C48.5 86.2376 59.3659 97 72.75 97C86.1341 97 97 86.2376 97 72.981C97 59.7243 86.1341 48.9619 72.75 48.9619ZM72.75 84.0667C66.5476 84.0667 61.5577 79.1243 61.5577 72.981C61.5577 66.8376 66.5476 61.8952 72.75 61.8952C78.9524 61.8952 83.9423 66.8376 83.9423 72.981C83.9423 79.1243 78.9524 84.0667 72.75 84.0667Z" fill="#2E2E2E"/>
<path d="M48.5 24.019C48.5 10.7624 37.6341 0 24.25 0C10.8659 0 0 10.7624 0 24.019C0 37.2757 10.8659 48.0381 24.25 48.0381C37.6341 48.0381 48.5 37.2757 48.5 24.019ZM24.25 35.1048C18.0476 35.1048 13.0577 30.1624 13.0577 24.019C13.0577 17.8757 18.0476 12.9333 24.25 12.9333C30.4524 12.9333 35.4423 17.8757 35.4423 24.019C35.4423 30.1624 30.4524 35.1048 24.25 35.1048Z" fill="#2E2E2E"/>
<path d="M24.25 48.0381C10.8659 48.0381 0 58.8005 0 72.0571C0 85.3138 10.8659 96.0762 24.25 96.0762C37.6341 96.0762 48.5 85.3138 48.5 72.0571C48.5 58.8005 37.6341 48.0381 24.25 48.0381ZM24.25 83.1428C18.0476 83.1428 13.0577 78.2005 13.0577 72.0571C13.0577 65.9138 18.0476 60.9714 24.25 60.9714C30.4524 60.9714 35.4423 65.9138 35.4423 72.0571C35.4423 78.2005 30.4524 83.1428 24.25 83.1428Z" fill="#2E2E2E"/>
</g>
<defs>
<clipPath id="clip0_360_3736">
<rect width="97" height="97" fill="white"/>
</clipPath>
</defs>
</svg>
