<svg width="97" height="98" viewBox="0 0 97 98" fill="none" xmlns="http://www.w3.org/2000/svg">
<g clip-path="url(#clip0_360_3755)">
<path d="M13.3608 23.5826C13.3608 17.5666 18.3935 12.6937 24.6245 12.6937H32.7728V0H24.5646C11.144 0 0.239746 10.5279 0.239746 23.5826V33.0276H13.3608V23.5826Z" fill="#2E2E2E"/>
<path d="M12.6418 73.3345V65.1528H0V73.3345C0 86.8704 10.4849 97.8195 23.4861 97.8195H32.8925V84.6445H23.4861C17.4948 84.6445 12.6418 79.5911 12.6418 73.3345Z" fill="#2E2E2E"/>
<path d="M83.6991 74.4172C83.6991 80.4332 78.6664 85.3061 72.4353 85.3061H64.2871V97.9998H72.4353C85.9159 97.9998 96.8202 87.4719 96.8202 74.4172V64.9722H83.6991V74.4172Z" fill="#2E2E2E"/>
<path d="M73.5138 0.240723H64.1074V13.4157H73.5138C79.5052 13.4157 84.3582 18.4691 84.3582 24.7257V32.9074H96.9999V24.6655C96.9999 11.1898 86.5151 0.240723 73.5138 0.240723Z" fill="#2E2E2E"/>
<path d="M20.9099 44.759H40.2021C42.7784 42.1721 46.3732 40.5478 50.3275 40.5478C54.2817 40.5478 57.8766 42.1721 60.4528 44.759H79.745C75.5511 32.4864 63.9278 23.7031 50.3275 23.7031C36.7271 23.7031 25.1039 32.4864 20.9099 44.759Z" fill="#2E2E2E"/>
<path d="M50.3275 47.7666C36.6672 47.7666 25.1039 56.5499 20.9099 68.8225H40.2021C42.7784 66.2356 46.3732 64.6113 50.3275 64.6113C54.2817 64.6113 57.8766 66.2356 60.4528 68.8225H79.745C75.5511 56.5499 63.9877 47.7666 50.3275 47.7666Z" fill="#2E2E2E"/>
</g>
<defs>
<clipPath id="clip0_360_3755">
<rect width="97" height="98" fill="white"/>
</clipPath>
</defs>
</svg>
