<svg width="97" height="96" viewBox="0 0 97 96" fill="none" xmlns="http://www.w3.org/2000/svg">
<path d="M23.7925 0C10.6608 0 0 10.6608 0 23.7925C0 36.9241 10.6608 47.5849 23.7925 47.5849C36.9241 47.5849 47.5849 36.9241 47.5849 23.7925C47.5849 10.6608 36.9241 0 23.7925 0ZM23.7925 34.7736C17.7071 34.7736 12.8113 29.8778 12.8113 23.7925C12.8113 17.7071 17.7071 12.8113 23.7925 12.8113C29.8778 12.8113 34.7736 17.7071 34.7736 23.7925C34.7736 29.8778 29.8778 34.7736 23.7925 34.7736Z" fill="#2E2E2E"/>
<path d="M44.6109 68.1746H36.6039C32.0741 68.1746 28.368 64.4684 28.368 59.9387V51.2453C26.9039 51.5198 25.3482 51.7029 23.7925 51.7029C22.0539 51.7029 20.3609 51.5198 18.7595 51.1538V59.9387C18.7595 69.776 26.7666 77.7831 36.6039 77.7831H45.2515C44.7024 75.7241 44.3822 73.6194 44.3822 71.3774C44.3822 70.2793 44.4737 69.2269 44.6109 68.1746Z" fill="#2E2E2E"/>
<path d="M52.3433 27.4527H60.8537C65.3834 27.4527 69.0895 31.1589 69.0895 35.6886V44.2905C70.4164 44.0617 71.789 43.9244 73.2074 43.9244C75.0834 43.9244 76.9136 44.1532 78.698 44.565V35.6886C78.698 25.8513 70.6909 17.8442 60.8537 17.8442H51.8857C52.389 19.7659 52.6178 21.7334 52.6178 23.7924C52.6178 25.0277 52.5263 26.2631 52.3433 27.4527Z" fill="#2E2E2E"/>
<path d="M73.2075 47.585C60.0759 47.585 49.415 58.2458 49.415 71.3774C49.415 84.509 60.0759 95.1699 73.2075 95.1699C86.3391 95.1699 96.9999 84.509 96.9999 71.3774C96.9999 58.2458 86.3391 47.585 73.2075 47.585ZM73.2075 82.3585C67.1221 82.3585 62.2264 77.4628 62.2264 71.3774C62.2264 65.292 67.1221 60.3963 73.2075 60.3963C79.2929 60.3963 84.1886 65.292 84.1886 71.3774C84.1886 77.4628 79.2929 82.3585 73.2075 82.3585Z" fill="#2E2E2E"/>
</svg>
