<svg width="24" height="24" viewBox="0 0 24 24" fill="none" xmlns="http://www.w3.org/2000/svg">
<g clip-path="url(#clip0_58_7583)">
<path d="M13.76 24C13.7067 24 13.6267 23.9733 13.5733 23.9733C10.7467 23.84 8.42668 22.6933 6.58668 20.56C5.57335 19.3866 4.93335 18.0533 4.58668 16.56C4.48001 16.1066 4.40001 15.6266 4.37335 15.1466C4.37335 14.9066 4.34668 14.6933 4.34668 14.4533C4.34668 13.7333 4.80001 13.1733 5.52001 13.0133C6.32001 12.8533 7.14668 13.4666 7.20001 14.2666C7.22668 14.56 7.22668 14.8533 7.25335 15.1733C7.30668 15.7866 7.46668 16.3733 7.68001 16.9066C8.53335 18.9066 9.97335 20.24 12.0533 20.88C12.64 21.0666 13.2533 21.1466 13.8933 21.1466C14.5867 21.1466 15.1467 21.6 15.3067 22.24C15.52 23.0666 14.9333 23.8933 14.08 24C14.0533 24 14.0267 24.0266 14 24.0266C13.92 24 13.84 24 13.76 24Z" fill="#C8006A"/>
<path d="M10.24 0C10.2933 0 10.3733 0.0266667 10.4267 0.0266667C13.1733 0.16 15.4667 1.25333 17.3067 3.30667C18.3733 4.50667 19.0667 5.89333 19.4133 7.44C19.52 7.89333 19.6 8.37333 19.6267 8.85333C19.6267 9.04 19.6533 9.25333 19.6533 9.44C19.7067 10.2133 19.2267 10.8267 18.48 10.9867C17.68 11.1467 16.88 10.5333 16.8 9.73333C16.7733 9.44 16.7733 9.12 16.7467 8.82667C16.6933 8.21333 16.5333 7.62667 16.32 7.09333C15.44 4.98667 13.8933 3.65333 11.68 3.06667C11.1733 2.93333 10.64 2.88 10.08 2.88C9.44001 2.88 8.90668 2.48 8.69334 1.89333C8.40001 1.04 8.98668 0.133333 9.89334 0.0266667C9.92001 0.0266667 9.94668 0 9.97335 0C10.08 0 10.16 0 10.24 0Z" fill="#C8006A"/>
<path d="M0 13.8133C0 13.7333 0.0266667 13.6533 0.0266667 13.5467C0.106667 11.3867 0.853333 9.46668 2.24 7.81335C3.36 6.48001 4.72 5.52001 6.37333 4.90668C7.01333 4.66668 7.68 4.50668 8.37333 4.42668C8.77333 4.37335 9.2 4.34668 9.62667 4.34668C10.32 4.34668 10.9067 4.82668 11.04 5.52001C11.2 6.32001 10.6133 7.09335 9.78667 7.17335C9.52 7.20001 9.28 7.20001 9.06667 7.20001C8.34667 7.25335 7.62667 7.41335 6.96 7.70668C5.38667 8.40001 4.21333 9.52001 3.49333 11.0933C3.2 11.7067 3.01333 12.32 2.93333 12.9867C2.90667 13.28 2.88 13.5733 2.88 13.8933C2.85333 14.6133 2.4 15.2 1.68 15.3333C0.853333 15.4667 0.106667 14.88 0.0266667 14.08C0.0266667 14.0533 0 14.0267 0 14C0 13.9467 0 13.8667 0 13.8133Z" fill="#C8006A"/>
<path d="M24 10.2134C24 10.2934 23.9733 10.3734 23.9733 10.4267C23.8933 12.56 23.1733 14.4534 21.84 16.1067C20.6133 17.6267 19.04 18.6934 17.1466 19.2534C16.56 19.44 15.9466 19.5467 15.3333 19.6C15.04 19.6267 14.7466 19.6534 14.4533 19.6534C13.7333 19.68 13.12 19.2 12.96 18.48C12.8 17.68 13.3866 16.88 14.2133 16.8C14.48 16.8 14.6933 16.8 14.9333 16.8C15.6266 16.7467 16.2933 16.6134 16.9333 16.32C19.0933 15.3867 20.4266 13.7867 20.9866 11.52C21.0933 11.0667 21.1466 10.5867 21.1466 10.1067C21.1466 9.46669 21.5466 8.90669 22.16 8.72003C22.9866 8.45336 23.8666 9.01336 24 9.86669C24 9.92003 24.0266 9.97336 24.0266 10.0267C24 10.08 24 10.1334 24 10.2134Z" fill="#C8006A"/>
</g>
<defs>
<clipPath id="clip0_58_7583">
<rect width="24" height="24" fill="white"/>
</clipPath>
</defs>
</svg>
