<svg width="685" height="414" viewBox="0 0 685 414" fill="none" xmlns="http://www.w3.org/2000/svg">
<g clip-path="url(#clip0_58_7151)">
<path d="M265.701 156.244L265.584 171.447L133.844 248.049V232.846L265.701 156.244Z" stroke="#C8006A" stroke-miterlimit="10"/>
<path d="M133.844 232.846V248.049L1.16895 171.447V156.244L133.844 232.846Z" stroke="#C8006A" stroke-miterlimit="10"/>
<path d="M265.701 156.244L133.844 232.846L1.16895 156.244L133.026 79.5254L265.701 156.244Z" stroke="#C8006A" stroke-miterlimit="10"/>
<path d="M683.831 77.3033V92.6237L551.974 169.225V153.905L683.831 77.3033Z" stroke="#C8006A" stroke-miterlimit="10"/>
<path d="M551.974 153.905V169.225L419.3 92.6237V77.3033L551.974 153.905Z" stroke="#C8006A" stroke-miterlimit="10"/>
<path d="M683.831 77.3034L551.974 153.905L419.3 77.3034L551.156 0.70166L683.831 77.3034Z" stroke="#C8006A" stroke-miterlimit="10"/>
<path d="M546.013 157.647V172.968L414.156 249.569L414.273 234.366L546.013 157.647Z" fill="black" stroke="#C8006A" stroke-miterlimit="10"/>
<path d="M414.273 234.366L414.156 249.569L281.481 172.968L281.598 157.647L414.273 234.366Z" fill="black" stroke="#C8006A" stroke-miterlimit="10"/>
<path d="M546.013 157.647L414.273 234.366L281.598 157.647L413.338 81.0458L546.013 157.647Z" fill="black" stroke="#C8006A" stroke-miterlimit="10"/>
<path d="M405.974 239.278L405.857 254.481L274.117 331.083V315.88L405.974 239.278Z" fill="black" stroke="#C8006A" stroke-miterlimit="10"/>
<path d="M274.117 315.88V331.083L141.442 254.481V239.278L274.117 315.88Z" fill="black" stroke="#C8006A" stroke-miterlimit="10"/>
<path d="M405.974 239.278L274.117 315.88L141.442 239.278L273.299 162.559L405.974 239.278Z" fill="black" stroke="#C8006A" stroke-miterlimit="10"/>
<path d="M546.247 321.142L546.13 336.346L414.39 412.947V397.744L546.247 321.142Z" fill="black" stroke="#C8006A" stroke-miterlimit="10"/>
<path d="M414.39 397.744V412.947L281.715 336.346V321.142L414.39 397.744Z" fill="black" stroke="#C8006A" stroke-miterlimit="10"/>
<path d="M546.247 321.142L414.39 397.744L281.715 321.142L413.572 244.424L546.247 321.142Z" fill="black" stroke="#C8006A" stroke-miterlimit="10"/>
<path d="M507.321 48.066L509.191 49.2355L507.321 50.2881L505.451 49.2355L507.321 48.066Z" fill="#C8006A"/>
<path d="M516.672 49.2355L514.802 50.2881L512.932 49.2355L514.802 48.066L516.672 49.2355Z" fill="#C8006A"/>
<path d="M512.932 49.2355L511.061 50.2881L509.191 49.2355L511.061 48.066L512.932 49.2355Z" fill="#C8006A"/>
<path d="M512.23 43.1542L503.58 48.0661L505.451 49.2356L503.697 50.2881L501.827 49.2356L498.086 51.3407L496.216 50.2881L510.243 42.1017L512.23 43.1542Z" fill="#C8006A"/>
<path d="M505.567 53.5627L503.697 52.3932L507.321 50.2881L509.308 51.3406L505.567 53.5627Z" fill="#C8006A"/>
<path d="M521.582 48.5339L523.452 49.5865L513.049 55.6678L511.178 54.6153L521.582 48.5339Z" fill="#C8006A"/>
<path d="M508.373 41.0491L494.346 49.2356L492.592 48.183L502.645 42.3356L499.606 40.5813L501.242 39.6458L504.398 41.4L506.619 40.1135L508.373 41.0491Z" fill="#C8006A"/>
<path d="M505.567 55.6678L503.697 54.6153L505.567 53.5627L507.438 54.6153L505.567 55.6678Z" fill="#C8006A"/>
<path d="M529.063 52.861L530.933 53.9135L520.53 59.9949L518.66 58.9423L529.063 52.861Z" fill="#C8006A"/>
<path d="M514.919 58.9423L516.789 57.8898L518.66 58.9423L516.789 59.9949L514.919 58.9423Z" fill="#C8006A"/>
<path d="M513.049 55.6677L514.919 56.7203L513.049 57.8898L511.178 56.7203L513.049 55.6677Z" fill="#C8006A"/>
<path d="M511.178 58.9423L513.049 57.8898L514.919 58.9423L513.049 59.9949L511.178 58.9423Z" fill="#C8006A"/>
<path d="M533.622 67.5966L538.532 64.6729L540.402 65.8423L535.492 68.6491L533.622 67.5966Z" fill="#C8006A"/>
<path d="M560.858 71.339L558.988 72.3915L551.507 68.0644L553.377 66.8949L560.858 71.339Z" fill="#C8006A"/>
<path d="M586.108 102.214L578.626 97.8864L580.497 96.8339L587.978 101.161L586.108 102.214Z" fill="#C8006A"/>
<path d="M556.066 82.683L557.936 81.6305L559.806 82.683L557.936 83.8525L556.066 82.683Z" fill="#C8006A"/>
<path d="M574.068 78.8237L575.938 79.9932L561.794 88.1797L559.923 87.0102L568.457 82.0983L566.586 80.9288L568.457 79.8763L570.327 80.9288L574.068 78.8237Z" fill="#C8006A"/>
<path d="M587.16 86.4254L585.289 87.478L577.808 83.1509L573.834 85.4898L581.315 89.817L585.289 87.478L587.16 88.6475L583.185 90.8695L581.315 89.817L579.445 90.8695L571.963 86.5424L567.405 89.2322L574.886 93.5593L579.445 90.8695L581.315 91.922L576.756 94.6119L574.886 93.5593L573.015 94.6119L563.664 89.2322L577.808 81.0458L587.16 86.4254Z" fill="#C8006A"/>
<path d="M600.252 94.0271L598.381 95.0796L590.9 90.7525L592.771 89.7L600.252 94.0271Z" fill="#C8006A"/>
<path d="M589.03 89.7L590.9 90.7525L586.692 93.2084L592.303 96.483L590.433 97.5355L584.822 94.261L580.497 96.8339L578.626 95.7813L589.03 89.7Z" fill="#C8006A"/>
<path d="M611.474 100.459L609.603 101.629L602.122 97.3017L597.797 99.7577L605.395 104.085L609.603 101.629L611.474 102.681L607.265 105.137L605.395 104.085L603.525 105.137L605.395 106.307L599.317 109.815L597.446 108.763L601.655 106.307L599.784 105.137L601.655 104.085L596.044 100.81L589.848 104.436L587.978 103.266L602.122 95.0797L611.474 100.459Z" fill="#C8006A"/>
<path d="M560.975 77.7711L562.846 78.8237L557.936 81.6304L556.066 80.5779L560.975 77.7711Z" fill="#C8006A"/>
<path d="M560.975 75.5491L562.846 76.6016L560.975 77.7711L559.105 76.6016L550.455 81.6305L548.584 80.5779L562.729 72.3915L564.599 73.444L560.975 75.5491Z" fill="#C8006A"/>
<path d="M546.831 79.5254L539.233 75.1983L541.103 74.0288L548.584 78.3559L546.831 79.5254Z" fill="#C8006A"/>
<path d="M549.637 66.8949L551.507 68.0644L547.299 70.5203L552.91 73.7949L551.039 74.8474L545.428 71.5729L541.103 74.0288L539.233 72.9763L549.637 66.8949Z" fill="#C8006A"/>
<path d="M547.766 63.7373L549.637 64.7898L535.492 72.9763L533.622 71.9237L542.272 66.8949L540.402 65.8424L542.272 64.6729L544.143 65.8424L547.766 63.7373Z" fill="#C8006A"/>
<path d="M534.791 62.5677L536.661 63.6203L531.752 66.544L529.881 65.3745L534.791 62.5677Z" fill="#C8006A"/>
<path d="M529.881 67.5966L531.752 66.5441L533.622 67.5966L531.752 68.6492L529.881 67.5966Z" fill="#C8006A"/>
<path d="M534.674 60.3457L536.661 61.5152L534.791 62.5678L532.921 61.5152L524.27 66.4271L522.4 65.3746L536.544 57.1881L538.415 58.2407L534.674 60.3457Z" fill="#C8006A"/>
<path d="M559.806 82.683L564.716 79.8762L566.586 80.9288L561.677 83.8525L559.806 82.683Z" fill="#C8006A"/>
<path d="M105.322 132.036L107.192 133.205L100.529 137.064L98.6587 136.012L105.322 132.036Z" fill="#C8006A"/>
<path d="M107.192 128.878L93.0478 137.064L91.1775 136.012L97.3729 132.386L89.8916 128.059L83.6962 131.685L81.8259 130.515L95.9701 122.329L97.8404 123.381L91.7619 127.007L99.2432 131.217L105.322 127.709L107.192 128.878Z" fill="#C8006A"/>
<path d="M133.493 143.964L131.623 145.134L124.142 140.807L120.167 143.029L127.648 147.356L131.623 145.134L133.493 146.187L129.519 148.409L127.648 147.356L125.778 148.409L118.297 144.081L113.738 146.771L121.219 151.098L125.778 148.409L127.648 149.578L123.09 152.151L121.219 151.098L119.349 152.268L109.997 146.771L124.025 138.585L133.493 143.964Z" fill="#C8006A"/>
<path d="M116.66 138.585L118.531 139.637L111.751 143.497L109.88 142.444L116.66 138.585Z" fill="#C8006A"/>
<path d="M106.14 142.444L108.01 141.392L109.881 142.444L108.127 143.497L106.14 142.444Z" fill="#C8006A"/>
<path d="M100.529 137.064L102.399 138.117L100.529 139.17L98.6587 138.117L100.529 137.064Z" fill="#C8006A"/>
<path d="M110.933 133.205L109.062 134.258L107.192 133.205L109.062 132.036L110.933 133.205Z" fill="#C8006A"/>
<path d="M116.66 138.585L114.673 137.532L116.544 136.363L118.531 137.532L116.66 138.585Z" fill="#C8006A"/>
<path d="M118.414 135.31L116.544 136.363L110.933 133.205L112.803 132.036L118.414 135.31Z" fill="#C8006A"/>
<path d="M98.6587 140.339L100.529 139.17L106.14 142.444L104.27 143.497L98.6587 140.339Z" fill="#C8006A"/>
<path d="M150.326 153.788L152.196 154.841L146.001 158.349L144.13 157.297L150.326 153.788Z" fill="#C8006A"/>
<path d="M157.807 158.115L159.677 159.168L153.482 162.676L151.612 161.624L149.741 162.676L147.871 161.624L149.741 160.571L151.612 161.624L157.807 158.115Z" fill="#C8006A"/>
<path d="M159.21 165.951L163.418 163.495L165.288 164.548L161.08 167.003L159.21 165.951Z" fill="#C8006A"/>
<path d="M154.885 168.407L156.755 169.459L154.885 170.629L153.015 169.459L154.885 168.407Z" fill="#C8006A"/>
<path d="M163.418 161.273L149.274 169.576L147.404 168.407L161.548 160.22L163.418 161.273Z" fill="#C8006A"/>
<path d="M146.001 158.349L147.871 159.519L146.001 160.571L144.13 159.519L146.001 158.349Z" fill="#C8006A"/>
<path d="M139.922 164.08L146.001 160.571L147.871 161.624L141.793 165.249L139.922 164.08Z" fill="#C8006A"/>
<path d="M146.585 151.566L144.715 152.619L137.234 148.292L133.259 150.631L140.741 154.958L144.715 152.619L146.585 153.788L142.611 156.01L140.741 154.958L138.87 156.01L131.389 151.683L126.83 154.373L134.311 158.7L138.87 156.01L140.741 157.063L136.182 159.753L134.311 158.7L132.441 159.753L123.09 154.373L137.234 146.187L146.585 151.566Z" fill="#C8006A"/>
<path d="M172.77 171.097L170.899 169.927L172.77 168.875L174.64 169.927L172.77 171.097Z" fill="#C8006A"/>
<path d="M167.159 163.495L174.64 167.822L172.77 168.875L165.288 164.548L167.159 163.495Z" fill="#C8006A"/>
<path d="M153.015 171.681L154.885 170.629L162.366 174.956L160.496 176.009L153.015 171.681Z" fill="#C8006A"/>
<path d="M166.691 172.383L159.21 168.056L161.08 167.003L168.561 171.331L166.691 172.383Z" fill="#C8006A"/>
<path d="M164.236 176.008L162.366 174.956L166.691 172.383L168.678 173.436L164.236 176.008Z" fill="#C8006A"/>
<path d="M189.719 176.476L187.966 177.646L183.173 174.839L170.899 181.973L169.029 180.92L181.303 173.786L176.51 170.98L178.381 169.927L189.719 176.476Z" fill="#C8006A"/>
<path d="M223.502 205.83L222.099 206.532L220.696 205.83L222.099 205.012L223.502 205.83Z" fill="#C8006A"/>
<path d="M226.307 205.83L224.904 206.532L223.502 205.83L224.904 205.012L226.307 205.83Z" fill="#C8006A"/>
<path d="M219.294 205.012L220.696 205.83L219.41 206.532L218.008 205.83L219.294 205.012Z" fill="#C8006A"/>
<path d="M219.41 208.17L218.008 207.351L219.41 206.532L220.813 207.351L219.41 208.17Z" fill="#C8006A"/>
<path d="M219.41 209.807L218.008 208.988L219.41 208.169L220.813 208.988L219.41 209.807Z" fill="#C8006A"/>
<path d="M229.113 208.988L227.71 209.807L226.307 208.988L227.71 208.169L229.113 208.988Z" fill="#C8006A"/>
<path d="M231.918 208.988L230.515 209.807L229.113 208.988L230.515 208.169L231.918 208.988Z" fill="#C8006A"/>
<path d="M224.904 208.169L226.307 208.988L225.021 209.807L223.619 208.988L224.904 208.169Z" fill="#C8006A"/>
<path d="M225.021 211.444L223.619 210.625L225.021 209.807L226.424 210.625L225.021 211.444Z" fill="#C8006A"/>
<path d="M225.021 213.081L223.619 212.263L225.021 211.444L226.424 212.263L225.021 213.081Z" fill="#C8006A"/>
<path d="M239.75 217.525L238.347 216.707L239.633 215.888L241.153 216.707L239.75 217.525Z" fill="#C8006A"/>
<path d="M234.139 214.251L235.425 213.432L236.828 214.251L235.425 215.069L234.139 214.251Z" fill="#C8006A"/>
<path d="M248.166 224.893L249.569 225.712L248.166 226.53L246.764 225.712L248.166 224.893Z" fill="#C8006A"/>
<path d="M248.868 222.788L250.27 223.607L248.166 224.893L246.764 224.075L248.868 222.788Z" fill="#C8006A"/>
<path d="M247.465 220.449L248.868 221.268L242.672 224.893L241.153 224.075L247.465 220.449Z" fill="#C8006A"/>
<path d="M246.647 218.344L248.868 219.63L247.465 220.449L245.244 219.163L246.647 218.344Z" fill="#C8006A"/>
<path d="M248.166 215.888L243.841 218.344L245.244 219.163L243.958 219.981L242.555 219.163L237.646 221.969L236.243 221.151L246.764 215.069L248.166 215.888Z" fill="#C8006A"/>
<path d="M238.23 213.432L241.036 215.069L239.633 215.888L236.828 214.251L238.23 213.432Z" fill="#C8006A"/>
<path d="M230.632 214.719L232.736 213.432L234.139 214.251L232.035 215.537L230.632 214.719Z" fill="#C8006A"/>
<path d="M232.035 217.175L230.632 216.356L232.035 215.537L233.438 216.356L232.035 217.175Z" fill="#C8006A"/>
<path d="M233.438 219.514L230.632 217.876L232.035 217.175L234.841 218.695L233.438 219.514Z" fill="#C8006A"/>
<path d="M237.646 218.695L236.243 219.514L234.84 218.695L236.243 217.993L237.646 218.695Z" fill="#C8006A"/>
<path d="M255.648 226.764L257.05 227.583L254.946 228.753L253.544 227.934L255.648 226.764Z" fill="#C8006A"/>
<path d="M250.738 227.934L252.141 227.115L253.543 227.934L252.141 228.753L250.738 227.934Z" fill="#C8006A"/>
<path d="M253.076 223.607L251.673 224.425L250.271 223.607L251.673 222.905L253.076 223.607Z" fill="#C8006A"/>
<path d="M255.648 226.764L254.245 225.946L255.648 225.127L257.05 225.946L255.648 226.764Z" fill="#C8006A"/>
<path d="M257.05 224.308L255.648 225.127L253.076 223.607L254.479 222.788L257.05 224.308Z" fill="#C8006A"/>
<path d="M246.881 227.349L248.166 226.531L250.738 227.934L249.335 228.753L246.881 227.349Z" fill="#C8006A"/>
<path d="M265.233 232.261L266.636 233.08L264.532 234.249L263.129 233.547L265.233 232.261Z" fill="#C8006A"/>
<path d="M260.323 233.547L261.726 232.729L263.129 233.547L261.726 234.249L260.323 233.547Z" fill="#C8006A"/>
<path d="M257.752 230.39L259.154 231.208L257.752 232.027L256.349 231.208L257.752 230.39Z" fill="#C8006A"/>
<path d="M262.661 229.22L261.259 230.039L259.856 229.22L261.259 228.402L262.661 229.22Z" fill="#C8006A"/>
<path d="M265.233 232.261L263.83 231.442L265.233 230.624L266.636 231.442L265.233 232.261Z" fill="#C8006A"/>
<path d="M266.636 229.805L265.233 230.624L262.661 229.22L264.064 228.402L266.636 229.805Z" fill="#C8006A"/>
<path d="M258.453 228.402L259.856 229.22L257.752 230.39L256.349 229.571L258.453 228.402Z" fill="#C8006A"/>
<path d="M256.349 232.846L257.752 232.027L260.323 233.547L258.921 234.249L256.349 232.846Z" fill="#C8006A"/>
<path d="M284.17 239.98L282.767 240.798L278.559 238.342L279.962 237.524L284.17 239.98Z" fill="#C8006A"/>
<path d="M276.455 244.424L272.247 241.968L273.649 241.149L277.858 243.605L276.455 244.424Z" fill="#C8006A"/>
<path d="M280.663 243.605L279.26 244.424L277.858 243.605L279.26 242.786L280.663 243.605Z" fill="#C8006A"/>
<path d="M281.364 243.254L275.753 239.98L273.649 241.149L272.247 240.33L277.156 237.524L278.559 238.342L277.156 239.161L281.364 241.617L282.767 240.798L284.17 241.617L281.364 243.254Z" fill="#C8006A"/>
<path d="M271.545 237.524L272.948 238.342L270.844 239.629L269.441 238.81L271.545 237.524Z" fill="#C8006A"/>
<path d="M275.753 235.068L274.351 235.886L270.844 233.898L272.247 233.08L275.753 235.068Z" fill="#C8006A"/>
<path d="M264.532 237.524L265.934 236.705L269.441 238.81L268.038 239.512L264.532 237.524Z" fill="#C8006A"/>
<path d="M269.441 234.717L272.948 236.705L271.545 237.524L268.038 235.536L269.441 234.717Z" fill="#C8006A"/>
<path d="M269.441 233.08L270.844 233.898L269.441 234.717L268.038 233.898L269.441 233.08Z" fill="#C8006A"/>
<path d="M265.934 235.068L267.337 235.886L265.934 236.705L264.532 235.886L265.934 235.068Z" fill="#C8006A"/>
<path d="M286.274 246.88L287.677 247.698L286.274 248.517L284.871 247.698L280.78 250.154L279.377 249.336L289.781 243.254L291.184 244.073L289.781 244.891L291.184 245.71L289.781 246.529L288.378 245.71L286.274 246.88Z" fill="#C8006A"/>
<path d="M293.404 248.634L294.807 249.336L292.82 250.622L291.417 249.803L293.404 248.634Z" fill="#C8006A"/>
<path d="M288.612 249.803L290.015 248.985L291.417 249.803L290.015 250.622L288.612 249.803Z" fill="#C8006A"/>
<path d="M293.404 248.634L292.002 247.815L293.404 246.997L294.807 247.815L293.404 248.634Z" fill="#C8006A"/>
<path d="M294.807 246.178L293.404 246.997L291.183 245.71L292.586 244.891L294.807 246.178Z" fill="#C8006A"/>
<path d="M284.988 249.336L286.274 248.517L288.612 249.803L287.209 250.622L284.988 249.336Z" fill="#C8006A"/>
<path d="M299.834 256.236L301.236 257.054L299.834 257.873L298.431 257.054L299.834 256.236Z" fill="#C8006A"/>
<path d="M297.613 249.336L299.015 250.154L297.613 250.973L296.21 250.154L297.613 249.336Z" fill="#C8006A"/>
<path d="M292.82 253.897L294.223 253.078L298.431 255.534L297.028 256.236L292.82 253.897Z" fill="#C8006A"/>
<path d="M303.224 252.61L304.626 253.429L299.834 256.236L298.431 255.534L300.535 254.247L296.21 251.792L297.613 250.973L301.938 253.429L303.224 252.61Z" fill="#C8006A"/>
<path d="M317.251 259.159L319.472 260.329L318.069 261.147L315.848 259.978L317.251 259.159Z" fill="#C8006A"/>
<path d="M318.069 261.147L319.472 261.966L313.16 265.708L311.757 264.89L318.069 261.147Z" fill="#C8006A"/>
<path d="M318.771 256.586L314.445 259.159L315.848 259.978L314.562 260.797L313.16 259.978L308.25 262.785L306.847 261.966L317.368 255.768L318.771 256.586Z" fill="#C8006A"/>
<path d="M311.64 257.522L310.237 256.703L305.445 259.51L304.042 258.692L308.835 255.885L307.432 255.066L308.835 254.247L310.237 255.066L313.16 253.429L314.562 254.131L311.64 255.885L313.043 256.703L311.64 257.522Z" fill="#C8006A"/>
<path d="M304.626 251.792L303.224 252.61L299.015 250.154L300.418 249.336L304.626 251.792Z" fill="#C8006A"/>
<path d="M294.807 250.973L296.21 251.792L294.223 253.078L292.82 252.259L294.807 250.973Z" fill="#C8006A"/>
<path d="M305.445 261.147L304.042 260.329L305.445 259.51L306.847 260.329L305.445 261.147Z" fill="#C8006A"/>
<path d="M325.784 266.41L327.187 267.229L325.784 268.047L324.381 267.229L325.784 266.41Z" fill="#C8006A"/>
<path d="M325.784 264.89L327.187 265.708L325.784 266.41L324.381 265.708L325.784 264.89Z" fill="#C8006A"/>
<path d="M325.784 263.253L327.187 264.071L325.784 264.89L324.381 264.071L325.784 263.253Z" fill="#C8006A"/>
<path d="M321.576 267.229L322.979 266.41L324.381 267.229L322.979 268.047L321.576 267.229Z" fill="#C8006A"/>
<path d="M318.771 267.229L320.173 266.41L321.576 267.229L320.173 268.047L318.771 267.229Z" fill="#C8006A"/>
<path d="M331.395 269.685L332.798 270.503L331.395 271.322L329.992 270.503L331.395 269.685Z" fill="#C8006A"/>
<path d="M331.395 268.047L332.798 268.866L331.395 269.685L329.992 268.866L331.395 268.047Z" fill="#C8006A"/>
<path d="M331.395 266.41L332.798 267.229L331.395 268.047L329.992 267.229L331.395 266.41Z" fill="#C8006A"/>
<path d="M327.187 270.503L328.59 269.685L329.992 270.503L328.59 271.322L327.187 270.503Z" fill="#C8006A"/>
<path d="M324.381 270.503L325.784 269.685L327.187 270.503L325.784 271.322L324.381 270.503Z" fill="#C8006A"/>
<path d="M398.726 153.32L400.596 152.268L406.207 155.542L404.337 156.595L398.726 153.32Z" fill="#C8006A"/>
<path d="M422.105 154.958L420.235 156.01L422.105 157.063L420.235 158.232L418.364 157.063L411.818 160.922L409.948 159.87L420.235 153.905L422.105 154.958Z" fill="#C8006A"/>
<path d="M405.155 145.251L403.285 146.303L401.415 145.251L399.661 146.303L397.791 145.251L391.245 148.993L389.375 147.941L399.544 141.976L401.415 143.029L399.544 144.081L401.415 145.251L403.285 144.081L405.155 145.251Z" fill="#C8006A"/>
<path d="M405.155 147.356L407.026 148.409L405.272 149.578L403.402 148.409L405.155 147.356Z" fill="#C8006A"/>
<path d="M401.532 149.578L403.402 150.631L400.596 152.268L398.726 151.215L401.532 149.578Z" fill="#C8006A"/>
<path d="M412.753 151.683L414.624 152.736L408.078 156.595L406.207 155.542L409.013 153.905L403.402 150.631L405.272 149.578L410.883 152.736L412.753 151.683Z" fill="#C8006A"/>
<path d="M395.921 135.427L397.791 136.48L387.504 142.561L385.634 141.392L395.921 135.427Z" fill="#C8006A"/>
<path d="M383.647 131.685L381.776 132.737L379.906 131.685L381.776 130.632L383.647 131.685Z" fill="#C8006A"/>
<path d="M379.906 131.685L378.036 132.737L376.166 131.685L378.036 130.632L379.906 131.685Z" fill="#C8006A"/>
<path d="M374.295 130.632L376.166 131.685L374.295 132.737L372.425 131.685L374.295 130.632Z" fill="#C8006A"/>
<path d="M379.088 125.603L370.555 130.632L372.425 131.685L370.672 132.737L368.684 131.685L365.061 133.907L363.19 132.737L377.218 124.551L379.088 125.603Z" fill="#C8006A"/>
<path d="M388.439 131.1L390.31 132.153L380.023 138.234L378.153 137.065L388.439 131.1Z" fill="#C8006A"/>
<path d="M375.347 123.498L361.32 131.685L359.567 130.749L369.619 124.902L366.58 123.148L368.217 122.095L371.373 123.849L373.594 122.563L375.347 123.498Z" fill="#C8006A"/>
<path d="M372.542 136.012L370.672 134.959L374.295 132.737L376.166 133.907L372.542 136.012Z" fill="#C8006A"/>
<path d="M372.542 138.234L370.672 137.064L372.542 136.012L374.412 137.064L372.542 138.234Z" fill="#C8006A"/>
<path d="M381.893 141.392L383.764 140.339L385.634 141.392L383.764 142.561L381.893 141.392Z" fill="#C8006A"/>
<path d="M380.023 138.234L381.893 139.286L380.023 140.339L378.153 139.286L380.023 138.234Z" fill="#C8006A"/>
<path d="M378.153 141.392L380.023 140.339L381.893 141.392L380.023 142.561L378.153 141.392Z" fill="#C8006A"/>
<path d="M408.078 156.595L409.948 157.648L408.078 158.7L406.207 157.648L408.078 156.595Z" fill="#C8006A"/>
<path d="M414.624 150.631L412.753 151.683L407.026 148.409L408.896 147.356L414.624 150.631Z" fill="#C8006A"/>
<path d="M423.975 156.01L426.781 157.648L424.91 158.817L422.105 157.063L423.975 156.01Z" fill="#C8006A"/>
<path d="M437.067 164.781L435.314 165.834L433.444 164.781L435.314 163.612L437.067 164.781Z" fill="#C8006A"/>
<path d="M440.808 164.781L438.938 165.834L437.067 164.781L438.938 163.612L440.808 164.781Z" fill="#C8006A"/>
<path d="M431.573 163.612L433.444 164.781L431.573 165.834L429.703 164.781L431.573 163.612Z" fill="#C8006A"/>
<path d="M429.703 169.109L427.833 167.939L431.573 165.834L433.444 166.887L429.703 169.109Z" fill="#C8006A"/>
<path d="M436.366 158.7L427.833 163.612L429.703 164.781L427.833 165.834L425.962 164.781L422.222 166.886L420.352 165.834L434.496 157.647L436.366 158.7Z" fill="#C8006A"/>
<path d="M424.91 158.817L426.781 159.87L418.481 164.781L416.611 163.612L424.91 158.817Z" fill="#C8006A"/>
<path d="M429.703 171.214L427.833 170.161L429.703 169.109L431.573 170.161L429.703 171.214Z" fill="#C8006A"/>
<path d="M448.406 173.436L446.536 174.488L444.666 173.436L446.536 172.266L448.406 173.436Z" fill="#C8006A"/>
<path d="M439.055 172.266L440.925 173.436L439.055 174.488L446.536 178.815L444.666 179.868L435.314 174.488L439.055 172.266Z" fill="#C8006A"/>
<path d="M444.666 173.436L442.795 174.488L440.925 173.436L442.795 172.266L444.666 173.436Z" fill="#C8006A"/>
<path d="M452.03 173.436L450.276 174.488L448.406 173.436L450.276 172.266L452.03 173.436Z" fill="#C8006A"/>
<path d="M448.406 181.973L450.276 180.92L455.887 184.195L454.017 185.248L448.406 181.973Z" fill="#C8006A"/>
<path d="M457.758 185.248L455.887 184.195L461.264 181.037L463.135 182.207L457.758 185.248Z" fill="#C8006A"/>
<path d="M467.811 179.4L460.329 175.073L457.524 176.71L463.135 179.985L461.264 181.037L453.783 176.71L460.329 172.968L469.681 178.348L467.811 179.4Z" fill="#C8006A"/>
<path d="M456.822 172.851L454.017 174.488L452.03 173.436L454.952 171.681L456.822 172.851Z" fill="#C8006A"/>
<path d="M451.212 167.354L456.823 170.629L454.952 171.681L449.341 168.524L451.212 167.354Z" fill="#C8006A"/>
<path d="M445.601 168.524L447.471 167.354L449.341 168.524L447.471 169.576L445.601 168.524Z" fill="#C8006A"/>
<path d="M451.212 178.231L453.082 179.283L450.276 180.92L448.406 179.868L451.212 178.231Z" fill="#C8006A"/>
<path d="M430.755 323.247L433.561 324.885L423.508 330.615L420.702 328.978L430.755 323.247Z" fill="#C8006A"/>
<path d="M430.755 316.698L427.95 318.336L416.611 311.786L410.182 315.529L421.52 322.078L427.95 318.336L430.755 319.973L424.326 323.715L421.52 322.078L418.715 323.715L421.52 325.353L412.403 330.615L409.597 329.095L415.909 325.353L413.104 323.715L415.909 322.078L407.493 317.166L398.258 322.546L395.453 320.908L416.611 308.629L430.755 316.698Z" fill="#C8006A"/>
<path d="M411 305.354L408.195 306.992L396.973 300.442L389.141 305.003L400.48 311.553L408.195 306.992L411 308.629L403.285 313.073L400.48 311.553L397.674 313.073L386.335 306.641L378.62 311.202L375.815 309.564L396.973 297.168L411 305.354Z" fill="#C8006A"/>
<path d="M447.588 332.954L450.51 334.592L440.457 340.439L437.652 338.802L447.588 332.954Z" fill="#C8006A"/>
<path d="M432.041 338.802L434.729 337.164L437.652 338.802L434.846 340.439L432.041 338.802Z" fill="#C8006A"/>
<path d="M423.508 330.615L426.313 332.253L423.625 333.89L420.819 332.253L423.508 330.615Z" fill="#C8006A"/>
<path d="M439.171 324.885L436.366 326.522L433.561 324.885L436.366 323.247L439.171 324.885Z" fill="#C8006A"/>
<path d="M447.588 332.954L444.782 331.317L447.588 329.68L450.393 331.317L447.588 332.954Z" fill="#C8006A"/>
<path d="M450.393 328.042L447.588 329.68L439.172 324.885L441.977 323.247L450.393 328.042Z" fill="#C8006A"/>
<path d="M420.819 335.527L423.625 333.89L432.041 338.802L429.235 340.439L420.819 335.527Z" fill="#C8006A"/>
</g>
<defs>
<clipPath id="clip0_58_7151">
<rect width="685" height="414" fill="white"/>
</clipPath>
</defs>
</svg>
