<svg width="754" height="976" viewBox="0 0 754 976" fill="none" xmlns="http://www.w3.org/2000/svg">
<path d="M488.05 893.453L447.22 934.283L488.05 975.113L528.88 934.283L488.05 893.453Z" stroke="#C8005A" stroke-miterlimit="10"/>
<path d="M443.437 848.83L402.607 889.659L443.437 930.489L484.267 889.659L443.437 848.83Z" stroke="#C8005A" stroke-miterlimit="10"/>
<path d="M398.735 804.206L357.905 845.036L398.735 885.866L439.565 845.036L398.735 804.206Z" stroke="#C8005A" stroke-miterlimit="10"/>
<path d="M354.122 759.583L313.292 800.413L354.122 841.243L394.951 800.413L354.122 759.583Z" stroke="#C8005A" stroke-miterlimit="10"/>
<path d="M309.509 714.96L268.679 755.79L309.509 796.62L350.338 755.79L309.509 714.96Z" stroke="#C8005A" stroke-miterlimit="10"/>
<path d="M264.896 670.337L224.066 711.167L264.896 751.996L305.725 711.167L264.896 670.337Z" stroke="#C8005A" stroke-miterlimit="10"/>
<path d="M220.282 625.713L179.453 666.543L220.282 707.373L261.112 666.543L220.282 625.713Z" stroke="#C8005A" stroke-miterlimit="10"/>
<path d="M175.669 581.09L134.839 621.92L175.669 662.75L216.499 621.92L175.669 581.09Z" stroke="#C8005A" stroke-miterlimit="10"/>
<path d="M131.056 536.467L90.2263 577.297L131.056 618.127L171.886 577.297L131.056 536.467Z" stroke="#C8005A" stroke-miterlimit="10"/>
<path d="M86.443 491.844L45.6132 532.674L86.443 573.503L127.273 532.674L86.443 491.844Z" stroke="#C8005A" stroke-miterlimit="10"/>
<path d="M41.8299 447.22L1 488.05L41.8299 528.88L82.6597 488.05L41.8299 447.22Z" stroke="#C8005A" stroke-miterlimit="10"/>
<path d="M532.673 848.84L491.844 889.67L532.673 930.499L573.503 889.67L532.673 848.84Z" stroke="#C8005A" stroke-miterlimit="10"/>
<path d="M488.016 804.172L447.186 845.002L488.016 885.832L528.846 845.002L488.016 804.172Z" stroke="#C8005A" stroke-miterlimit="10"/>
<path d="M443.403 759.549L402.573 800.378L443.403 841.208L484.232 800.378L443.403 759.549Z" stroke="#C8005A" stroke-miterlimit="10"/>
<path d="M398.745 714.97L357.915 755.8L398.745 796.63L439.575 755.8L398.745 714.97Z" stroke="#C8005A" stroke-miterlimit="10"/>
<path d="M354.132 670.347L313.302 711.177L354.132 752.007L394.962 711.177L354.132 670.347Z" stroke="#C8005A" stroke-miterlimit="10"/>
<path d="M309.519 625.724L268.689 666.553L309.519 707.383L350.349 666.553L309.519 625.724Z" stroke="#C8005A" stroke-miterlimit="10"/>
<path d="M264.906 581.1L224.076 621.93L264.906 662.76L305.735 621.93L264.906 581.1Z" stroke="#C8005A" stroke-miterlimit="10"/>
<path d="M220.293 536.477L179.463 577.307L220.293 618.137L261.122 577.307L220.293 536.477Z" stroke="#C8005A" stroke-miterlimit="10"/>
<path d="M175.679 491.854L134.849 532.684L175.679 573.514L216.509 532.684L175.679 491.854Z" stroke="#C8005A" stroke-miterlimit="10"/>
<path d="M131.066 447.231L90.2363 488.06L131.066 528.89L171.896 488.06L131.066 447.231Z" stroke="#C8005A" stroke-miterlimit="10"/>
<path d="M86.4531 402.607L45.6232 443.437L86.4531 484.267L127.283 443.437L86.4531 402.607Z" stroke="#C8005A" stroke-miterlimit="10"/>
<path d="M577.252 804.182L536.422 845.012L577.252 885.842L618.082 845.012L577.252 804.182Z" stroke="#C8005A" stroke-miterlimit="10"/>
<path d="M532.639 759.559L491.809 800.389L532.639 841.218L573.469 800.389L532.639 759.559Z" stroke="#C8005A" stroke-miterlimit="10"/>
<path d="M488.026 714.935L447.196 755.765L488.026 796.595L528.856 755.765L488.026 714.935Z" stroke="#C8005A" stroke-miterlimit="10"/>
<path d="M443.413 670.312L402.583 711.142L443.413 751.972L484.243 711.142L443.413 670.312Z" stroke="#C8005A" stroke-miterlimit="10"/>
<path d="M398.755 625.734L357.925 666.563L398.755 707.393L439.585 666.563L398.755 625.734Z" stroke="#C8005A" stroke-miterlimit="10"/>
<path d="M354.142 581.11L313.312 621.94L354.142 662.77L394.972 621.94L354.142 581.11Z" stroke="#C8005A" stroke-miterlimit="10"/>
<path d="M309.529 536.487L268.699 577.317L309.529 618.147L350.359 577.317L309.529 536.487Z" stroke="#C8005A" stroke-miterlimit="10"/>
<path d="M264.916 491.864L224.086 532.694L264.916 573.524L305.746 532.694L264.916 491.864Z" stroke="#C8005A" stroke-miterlimit="10"/>
<path d="M220.303 447.241L179.473 488.071L220.303 528.9L261.133 488.071L220.303 447.241Z" stroke="#C8005A" stroke-miterlimit="10"/>
<path d="M175.689 402.617L134.86 443.447L175.689 484.277L216.519 443.447L175.689 402.617Z" stroke="#C8005A" stroke-miterlimit="10"/>
<path d="M131.032 357.95L90.2019 398.779L131.032 439.609L171.862 398.779L131.032 357.95Z" stroke="#C8005A" stroke-miterlimit="10"/>
<path d="M621.875 759.569L581.045 800.399L621.875 841.229L662.705 800.399L621.875 759.569Z" stroke="#C8005A" stroke-miterlimit="10"/>
<path d="M577.262 714.946L536.432 755.775L577.262 796.605L618.092 755.775L577.262 714.946Z" stroke="#C8005A" stroke-miterlimit="10"/>
<path d="M532.649 670.322L491.819 711.152L532.649 751.982L573.479 711.152L532.649 670.322Z" stroke="#C8005A" stroke-miterlimit="10"/>
<path d="M488.036 625.699L447.206 666.529L488.036 707.359L528.866 666.529L488.036 625.699Z" stroke="#C8005A" stroke-miterlimit="10"/>
<path d="M443.423 581.076L402.593 621.906L443.423 662.736L484.253 621.906L443.423 581.076Z" stroke="#C8005A" stroke-miterlimit="10"/>
<path d="M398.765 536.497L357.935 577.327L398.765 618.157L439.595 577.327L398.765 536.497Z" stroke="#C8005A" stroke-miterlimit="10"/>
<path d="M354.152 491.874L313.322 532.704L354.152 573.534L394.982 532.704L354.152 491.874Z" stroke="#C8005A" stroke-miterlimit="10"/>
<path d="M309.539 447.251L268.709 488.081L309.539 528.911L350.369 488.081L309.539 447.251Z" stroke="#C8005A" stroke-miterlimit="10"/>
<path d="M264.926 402.628L224.096 443.457L264.926 484.287L305.756 443.457L264.926 402.628Z" stroke="#C8005A" stroke-miterlimit="10"/>
<path d="M220.268 357.96L179.438 398.79L220.268 439.619L261.098 398.79L220.268 357.96Z" stroke="#C8005A" stroke-miterlimit="10"/>
<path d="M175.655 313.336L134.825 354.166L175.655 394.996L216.485 354.166L175.655 313.336Z" stroke="#C8005A" stroke-miterlimit="10"/>
<path d="M666.499 714.956L625.669 755.786L666.499 796.615L707.328 755.786L666.499 714.956Z" stroke="#C8005A" stroke-miterlimit="10"/>
<path d="M621.885 670.332L581.056 711.162L621.885 751.992L662.715 711.162L621.885 670.332Z" stroke="#C8005A" stroke-miterlimit="10"/>
<path d="M577.272 625.709L536.442 666.539L577.272 707.369L618.102 666.539L577.272 625.709Z" stroke="#C8005A" stroke-miterlimit="10"/>
<path d="M532.659 581.086L491.829 621.916L532.659 662.746L573.489 621.916L532.659 581.086Z" stroke="#C8005A" stroke-miterlimit="10"/>
<path d="M488.046 536.463L447.216 577.293L488.046 618.123L528.876 577.293L488.046 536.463Z" stroke="#C8005A" stroke-miterlimit="10"/>
<path d="M443.433 491.84L402.603 532.669L443.433 573.499L484.263 532.669L443.433 491.84Z" stroke="#C8005A" stroke-miterlimit="10"/>
<path d="M398.775 447.261L357.945 488.091L398.775 528.921L439.605 488.091L398.775 447.261Z" stroke="#C8005A" stroke-miterlimit="10"/>
<path d="M354.162 402.638L313.332 443.468L354.162 484.297L394.992 443.468L354.162 402.638Z" stroke="#C8005A" stroke-miterlimit="10"/>
<path d="M309.504 357.97L268.675 398.8L309.504 439.629L350.334 398.8L309.504 357.97Z" stroke="#C8005A" stroke-miterlimit="10"/>
<path d="M264.891 313.347L224.062 354.176L264.891 395.006L305.721 354.176L264.891 313.347Z" stroke="#C8005A" stroke-miterlimit="10"/>
<path d="M220.278 268.723L179.448 309.553L220.278 350.383L261.108 309.553L220.278 268.723Z" stroke="#C8005A" stroke-miterlimit="10"/>
<path d="M711.122 670.343L670.292 711.172L711.122 752.002L751.952 711.172L711.122 670.343Z" stroke="#C8005A" stroke-miterlimit="10"/>
<path d="M666.509 625.719L625.679 666.549L666.509 707.379L707.339 666.549L666.509 625.719Z" stroke="#C8005A" stroke-miterlimit="10"/>
<path d="M621.896 581.096L581.066 621.926L621.896 662.756L662.726 621.926L621.896 581.096Z" stroke="#C8005A" stroke-miterlimit="10"/>
<path d="M577.283 536.473L536.453 577.303L577.283 618.133L618.112 577.303L577.283 536.473Z" stroke="#C8005A" stroke-miterlimit="10"/>
<path d="M532.669 491.85L491.84 532.68L532.669 573.509L573.499 532.68L532.669 491.85Z" stroke="#C8005A" stroke-miterlimit="10"/>
<path d="M488.056 447.226L447.226 488.056L488.056 528.886L528.886 488.056L488.056 447.226Z" stroke="#C8005A" stroke-miterlimit="10"/>
<path d="M443.443 402.603L402.613 443.433L443.443 484.263L484.273 443.433L443.443 402.603Z" stroke="#C8005A" stroke-miterlimit="10"/>
<path d="M398.741 357.98L357.911 398.81L398.741 439.64L439.571 398.81L398.741 357.98Z" stroke="#C8005A" stroke-miterlimit="10"/>
<path d="M354.128 313.357L313.298 354.187L354.128 395.016L394.958 354.187L354.128 313.357Z" stroke="#C8005A" stroke-miterlimit="10"/>
<path d="M309.515 268.733L268.685 309.563L309.515 350.393L350.344 309.563L309.515 268.733Z" stroke="#C8005A" stroke-miterlimit="10"/>
<path d="M264.902 224.11L224.072 264.94L264.902 305.77L305.731 264.94L264.902 224.11Z" stroke="#C8005A" stroke-miterlimit="10"/>
<path d="M577.293 447.237L536.463 488.066L577.293 528.896L618.123 488.066L577.293 447.237Z" stroke="#C8005A" stroke-miterlimit="10"/>
<path d="M532.68 402.613L491.85 443.443L532.68 484.273L573.509 443.443L532.68 402.613Z" stroke="#C8005A" stroke-miterlimit="10"/>
<path d="M488.022 357.945L447.192 398.775L488.022 439.605L528.852 398.775L488.022 357.945Z" stroke="#C8005A" stroke-miterlimit="10"/>
<path d="M443.409 313.322L402.579 354.152L443.409 394.982L484.239 354.152L443.409 313.322Z" stroke="#C8005A" stroke-miterlimit="10"/>
<path d="M398.751 268.743L357.921 309.573L398.751 350.403L439.581 309.573L398.751 268.743Z" stroke="#C8005A" stroke-miterlimit="10"/>
<path d="M354.138 224.12L313.308 264.95L354.138 305.78L394.968 264.95L354.138 224.12Z" stroke="#C8005A" stroke-miterlimit="10"/>
<path d="M309.525 179.497L268.695 220.327L309.525 261.157L350.355 220.327L309.525 179.497Z" stroke="#C8005A" stroke-miterlimit="10"/>
<path d="M577.258 357.956L536.428 398.785L577.258 439.615L618.088 398.785L577.258 357.956Z" stroke="#C8005A" stroke-miterlimit="10"/>
<path d="M532.645 313.332L491.815 354.162L532.645 394.992L573.475 354.162L532.645 313.332Z" stroke="#C8005A" stroke-miterlimit="10"/>
<path d="M488.032 268.709L447.202 309.539L488.032 350.369L528.862 309.539L488.032 268.709Z" stroke="#C8005A" stroke-miterlimit="10"/>
<path d="M443.419 224.086L402.589 264.916L443.419 305.746L484.249 264.916L443.419 224.086Z" stroke="#C8005A" stroke-miterlimit="10"/>
<path d="M398.761 179.507L357.931 220.337L398.761 261.167L439.591 220.337L398.761 179.507Z" stroke="#C8005A" stroke-miterlimit="10"/>
<path d="M354.148 134.884L313.318 175.714L354.148 216.544L394.978 175.714L354.148 134.884Z" stroke="#C8005A" stroke-miterlimit="10"/>
<path d="M621.881 313.342L581.052 354.172L621.881 395.002L662.711 354.172L621.881 313.342Z" stroke="#C8005A" stroke-miterlimit="10"/>
<path d="M577.268 268.719L536.438 309.549L577.268 350.379L618.098 309.549L577.268 268.719Z" stroke="#C8005A" stroke-miterlimit="10"/>
<path d="M532.655 224.096L491.825 264.926L532.655 305.756L573.485 264.926L532.655 224.096Z" stroke="#C8005A" stroke-miterlimit="10"/>
<path d="M488.042 179.473L447.212 220.303L488.042 261.132L528.872 220.303L488.042 179.473Z" stroke="#C8005A" stroke-miterlimit="10"/>
<path d="M443.429 134.849L402.599 175.679L443.429 216.509L484.259 175.679L443.429 134.849Z" stroke="#C8005A" stroke-miterlimit="10"/>
<path d="M398.771 90.2708L357.941 131.101L398.771 171.931L439.601 131.101L398.771 90.2708Z" stroke="#C8005A" stroke-miterlimit="10"/>
<path d="M666.505 268.729L625.675 309.559L666.505 350.389L707.334 309.559L666.505 268.729Z" stroke="#C8005A" stroke-miterlimit="10"/>
<path d="M712.352 224.547L671.522 265.377L712.352 306.207L753.182 265.377L712.352 224.547Z" stroke="#C8005A" stroke-miterlimit="10"/>
<path d="M621.892 224.106L581.062 264.936L621.892 305.766L662.721 264.936L621.892 224.106Z" stroke="#C8005A" stroke-miterlimit="10"/>
<path d="M577.278 179.483L536.449 220.313L577.278 261.143L618.108 220.313L577.278 179.483Z" stroke="#C8005A" stroke-miterlimit="10"/>
<path d="M532.665 134.86L491.835 175.689L532.665 216.519L573.495 175.689L532.665 134.86Z" stroke="#C8005A" stroke-miterlimit="10"/>
<path d="M488.052 90.2364L447.222 131.066L488.052 171.896L528.882 131.066L488.052 90.2364Z" stroke="#C8005A" stroke-miterlimit="10"/>
<path d="M443.439 45.6131L402.609 86.443L443.439 127.273L484.269 86.443L443.439 45.6131Z" stroke="#C8005A" stroke-miterlimit="10"/>
<path d="M666.515 179.493L625.685 220.323L666.515 261.153L707.345 220.323L666.515 179.493Z" stroke="#C8005A" stroke-miterlimit="10"/>
<path d="M621.902 134.87L581.072 175.7L621.902 216.529L662.732 175.7L621.902 134.87Z" stroke="#C8005A" stroke-miterlimit="10"/>
<path d="M577.289 90.2464L536.459 131.076L577.289 171.906L618.118 131.076L577.289 90.2464Z" stroke="#C8005A" stroke-miterlimit="10"/>
<path d="M532.675 45.6233L491.846 86.4531L532.675 127.283L573.505 86.4531L532.675 45.6233Z" stroke="#C8005A" stroke-miterlimit="10"/>
<path d="M488.062 0.999962L447.232 41.8298L488.062 82.6597L528.892 41.8298L488.062 0.999962Z" stroke="#C8005A" stroke-miterlimit="10"/>
</svg>
