<svg width="53" height="53" viewBox="0 0 53 53" fill="none" xmlns="http://www.w3.org/2000/svg">
<g clip-path="url(#clip0_425_3825)">
<path d="M26.5 0C11.8652 0 0 11.8652 0 26.5C0 41.1348 11.8652 53 26.5 53C41.1348 53 53 41.1348 53 26.5C53 11.8652 41.1348 0 26.5 0ZM41.0665 13.7971C43.2377 13.8313 44.9816 15.6606 44.9645 17.849C44.9303 19.9519 43.1181 21.7471 41.0323 21.7471C38.8781 21.7471 37.0658 19.9177 37.0829 17.7465C37.1 15.5581 38.9123 13.7629 41.0665 13.7971ZM26.5342 5.96677C28.6713 5.98387 30.4323 7.72774 30.4494 9.84774C30.4665 12.019 28.6713 13.8142 26.4829 13.8142C24.2774 13.8142 22.5165 12.0532 22.5335 9.86484C22.5335 7.67645 24.3116 5.94968 26.5342 5.96677ZM11.8823 39.2542C9.76226 39.2029 8.03548 37.4419 8.01839 35.3048C8.00129 33.1165 9.81355 31.3042 11.9677 31.3213C14.139 31.3384 15.9 33.1506 15.8829 35.339C15.8829 37.4932 14.0365 39.3055 11.8823 39.2542ZM11.9506 21.7471C9.83065 21.73 8.05258 19.969 8.03548 17.849C8.00129 15.6435 9.74516 13.8484 11.9165 13.8142C14.0706 13.7629 15.8829 15.5581 15.9 17.7465C15.9 19.9177 14.0877 21.7642 11.9506 21.7471ZM26.4829 46.999C24.3287 46.999 22.5165 45.1697 22.5165 42.9984C22.5335 40.8271 24.3458 39.0319 26.5171 39.0661C28.6713 39.1003 30.4835 40.9639 30.4323 43.101C30.3981 45.2039 28.5687 46.9819 26.4829 46.999ZM35.4929 31.7145C34.8432 33.4413 33.5097 34.45 31.7487 34.5184C28.1755 34.6894 24.5852 34.6552 21.0119 34.6894C19.9177 34.7065 18.8235 34.6894 17.4558 34.6894C18.8235 29.1671 19.08 23.7645 17.4558 18.379C17.7635 18.2935 17.9174 18.2252 18.0542 18.2252C22.2258 18.2252 26.3974 18.191 30.5861 18.2594C33.219 18.3106 34.9458 20.1571 34.7235 22.5335C34.5868 23.9526 33.9542 25.081 32.6035 25.9016C35.51 27.3035 36.4332 29.2355 35.4929 31.7145ZM40.9981 39.2542C38.8439 39.2371 37.0316 37.3906 37.0658 35.2365C37.1 33.1165 38.861 31.3555 40.981 31.3213C43.1181 31.2871 44.9645 33.1165 44.9645 35.2877C44.9645 37.4419 43.1352 39.2713 40.9981 39.2542Z" fill="#969696"/>
<path d="M28.7055 28.1242C27.919 28.09 27.1326 28.1071 26.3461 28.1071C23.7816 28.1071 23.7816 28.1071 23.5081 30.8767C25.3032 30.8767 26.9787 30.8938 28.6713 30.8596C29.5432 30.8425 30.0903 30.3638 30.0561 29.4577C30.039 28.62 29.5432 28.1583 28.7055 28.1242Z" fill="#969696"/>
<path d="M24.2774 24.3287C25.4913 24.38 26.7223 24.4313 27.919 24.2774C28.3123 24.2261 28.8765 23.5081 28.8594 23.0807C28.8594 22.7216 28.1926 22.089 27.7823 22.0548C26.3803 21.9181 24.9613 22.0036 23.491 22.0036C23.5765 22.6874 23.6106 23.2174 23.7474 23.6961C23.8158 23.9526 24.0894 24.3287 24.2774 24.3287Z" fill="#969696"/>
</g>
<defs>
<clipPath id="clip0_425_3825">
<rect width="53" height="53" fill="white"/>
</clipPath>
</defs>
</svg>
