<svg width="83" height="53" viewBox="0 0 83 53" fill="none" xmlns="http://www.w3.org/2000/svg">
<path d="M55.4553 35.1358C54.4393 35.1358 53.3387 35.2204 52.3227 35.2204C51.3067 35.2204 50.2907 35.2205 49.2748 34.9665C47.4121 34.5431 46.3962 32.9345 47.0735 30.9872C47.2428 30.5639 47.3275 30.1406 47.4121 29.7172C47.6661 28.7013 47.4968 27.8546 46.8195 27.0927C46.4808 26.754 46.3962 26.3307 46.6502 25.8227C46.8195 25.5687 46.9888 25.3147 47.1582 25.1454C46.2268 24.8067 45.8035 23.7907 46.5655 22.8594C46.7348 22.6054 46.9042 22.3514 46.9888 22.0128C47.2428 21.1661 47.1582 20.5735 46.2268 20.3195C45.6342 20.1502 45.1262 19.8962 44.5336 19.6422C43.9409 19.3035 43.6869 18.7109 43.8562 18.1182C44.1102 17.4409 44.3642 16.7636 44.7875 16.1709C45.9729 14.5623 47.2428 12.9537 48.5128 11.345C49.0208 10.7524 49.3594 10.0751 49.2748 9.22843C49.1901 7.8738 49.4441 6.60383 49.8674 5.41853C50.4601 3.30191 51.5607 1.52396 52.9153 0H53.4233L65.6997 19.3035L55.4553 35.1358ZM16.6789 19.3035L26.8387 35.1358C27.9393 35.1358 28.9553 35.2204 30.0559 35.2204C31.0719 35.2204 32.0879 35.2205 33.1038 34.9665C34.9665 34.5431 35.9824 32.9345 35.3051 30.9872C35.1358 30.5639 35.0511 30.1406 34.9665 29.7172C34.7125 28.7013 34.8818 27.8546 35.5591 27.0927C35.8978 26.754 35.9824 26.3307 35.7284 25.8227C35.5591 25.5687 35.3898 25.3147 35.2205 25.1454C36.1518 24.8067 36.5751 23.7907 35.8131 22.8594C35.6438 22.6054 35.4744 22.3514 35.3898 22.0128C35.1358 21.1661 35.2204 20.5735 36.1518 20.3195C36.7444 20.1502 37.2524 19.8962 37.8451 19.6422C38.4377 19.3035 38.6917 18.7109 38.5224 18.1182C38.2684 17.4409 38.0144 16.7636 37.5911 16.1709C36.4058 14.5623 35.1358 12.9537 33.8658 11.345C33.3578 10.7524 33.0192 10.0751 33.1038 9.22843C33.1885 7.8738 32.9345 6.60383 32.5112 5.41853C31.9185 3.30191 30.9026 1.52395 29.4633 0.0846568H28.9553L16.6789 19.3035ZM9.05911 47.9201C9.05911 47.6661 9.05911 47.4121 9.05911 47.0735C9.05911 44.8722 7.95847 42.2476 4.65655 42.2476C1.52396 42.2476 0 44.7029 0 47.7508C0 50.3754 1.26997 53 4.48722 53C7.28115 53 8.38179 51.222 8.80511 49.9521H7.02716C6.6885 50.7141 6.18051 51.5607 4.57189 51.5607C2.87859 51.5607 1.77796 50.0367 1.77796 48.0048H9.05911V47.9201ZM1.86262 46.7348C2.03195 44.9569 2.79393 43.6869 4.65655 43.6869C6.34984 43.6869 7.19649 45.0415 7.28115 46.7348H1.86262ZM11.345 52.746H13.123V47.3275C13.123 45.2955 13.885 43.7716 15.8323 43.7716C17.3562 43.7716 17.9489 44.7875 17.9489 46.3115V52.6613H19.7268V46.0575C19.7268 43.3483 18.2029 42.1629 16.2556 42.1629C14.3083 42.1629 13.4617 43.1789 13.0383 44.1102C13.0383 43.7716 13.0383 42.7556 12.9537 42.4169H11.2604C11.2604 43.1789 11.2604 44.1102 11.2604 44.9569V52.746H11.345ZM29.0399 49.6134C28.6166 50.7987 27.8546 51.476 26.5847 51.476C24.8067 51.476 23.7907 49.9521 23.7907 47.5815C23.7907 45.2955 24.8067 43.6869 26.5847 43.6869C28.1086 43.6869 28.7013 44.6182 28.9553 45.6342H30.7332C30.6486 44.3642 29.5479 42.2476 26.6693 42.2476C23.6214 42.2476 22.0128 44.7875 22.0128 47.6661C22.0128 50.9681 23.7061 53 26.5847 53C29.2093 53 30.3946 51.3914 30.8179 49.6134H29.0399ZM37.1677 42.3323C34.1198 42.3323 32.3419 44.7029 32.3419 47.6661C32.3419 50.7141 34.1198 53 37.0831 53C40.2157 53 41.909 50.5447 41.909 47.5815C41.8243 44.4489 39.9617 42.3323 37.1677 42.3323ZM37.0831 43.7716C39.0304 43.7716 40.0463 45.3802 40.0463 47.6661C40.0463 49.9521 38.9457 51.5607 37.0831 51.5607C35.2204 51.5607 34.1198 49.9521 34.1198 47.6661C34.1198 45.2955 35.1358 43.7716 37.0831 43.7716ZM45.9728 40.131V37.9297H44.1949V40.131H45.9728ZM44.1949 52.746H45.9728V42.5016H44.1949V52.746ZM49.0208 52.746H50.7987V47.3275C50.7987 45.2955 51.5607 43.7716 53.508 43.7716C55.032 43.7716 55.6246 44.7875 55.6246 46.3115V52.6613H57.4026V46.0575C57.4026 43.3483 55.8786 42.1629 53.9313 42.1629C51.984 42.1629 51.1374 43.1789 50.7141 44.1102C50.7141 43.7716 50.7141 42.7556 50.6294 42.4169H48.9361C48.9361 43.1789 48.9361 44.1102 48.9361 44.9569V52.746H49.0208ZM59.0112 43.9409H60.7891V50.3754C60.7891 52.0687 61.4665 52.9153 63.0751 52.9153C63.5831 52.9153 64.1757 52.9153 64.599 52.746V51.3914C64.3451 51.476 63.9217 51.476 63.7524 51.476C62.8211 51.476 62.5671 50.968 62.5671 49.9521V43.9409H64.853V42.5016H62.5671V39.5383H60.7891V42.5863H59.0112V43.9409ZM74.8435 47.9201C74.8435 47.6661 74.8435 47.4121 74.8435 47.0735C74.8435 44.8722 73.7428 42.2476 70.4409 42.2476C67.3083 42.2476 65.7844 44.7029 65.7844 47.7508C65.7844 50.3754 67.0543 53 70.2716 53C73.0655 53 74.1661 51.222 74.5895 49.9521H72.8115C72.4729 50.7141 71.9649 51.5607 70.3562 51.5607C68.6629 51.5607 67.5623 50.0367 67.5623 48.0048H74.8435V47.9201ZM67.7316 46.7348C67.901 44.9569 68.6629 43.6869 70.5256 43.6869C72.2189 43.6869 73.0655 45.0415 73.1502 46.7348H67.7316ZM77.1294 52.746H78.9074V47.7508C78.9074 45.2109 80.262 44.0256 82.2939 44.0256V42.2476C80.6006 42.2476 79.4153 43.1789 78.9074 44.5335C78.9074 43.5176 78.9074 42.7556 78.8227 42.4169H77.1294C77.1294 42.9249 77.1294 43.7716 77.1294 45.2109V52.746Z" fill="#969696"/>
</svg>
