<svg width="164" height="53" viewBox="0 0 164 53" fill="none" xmlns="http://www.w3.org/2000/svg">
<path d="M90.71 22.6345C89.1756 22.184 87.7314 22.184 86.2873 22.6345C86.2873 22.5444 86.3775 22.4543 86.3775 22.3642C86.5581 22.184 86.7386 22.0038 87.0094 21.9137C87.0996 21.8236 87.0996 21.8236 87.0996 21.7335C87.0094 21.4632 86.8288 21.283 86.5581 21.1028C86.197 20.8324 85.836 20.472 85.475 20.2017C84.5724 19.571 84.1211 18.76 83.9406 17.6788V17.5887C83.038 17.4986 82.1354 17.4986 81.2328 17.4084C81.7744 17.2282 82.2256 17.1381 82.7672 16.9579C82.4964 16.7777 82.2257 16.7777 81.9549 16.7777C81.1425 16.6876 80.3302 16.7777 79.5179 16.9579C77.6225 17.3183 75.727 17.859 73.8316 18.3996C71.3946 19.1204 68.9576 20.0215 66.6109 20.9225C66.5206 20.9225 66.5206 20.9225 66.4304 21.0127C66.4304 20.9225 66.4304 20.8324 66.4304 20.6522C65.9791 20.9226 65.6181 21.0127 65.1668 21.1028C64.7155 21.1929 64.2642 21.1028 63.8129 21.0127C64.3544 20.5621 64.896 20.2017 65.4375 19.7512C65.0765 19.7512 64.7155 19.7512 64.3544 19.7512C68.1453 17.7689 72.0264 15.7866 75.8173 13.8943C75.005 13.8943 74.1926 13.8943 73.29 13.8943C73.29 13.8943 73.29 13.8943 73.3803 13.8042C77.3517 11.2813 81.2328 8.84845 85.2042 6.32551C86.6483 5.42446 88.1827 4.61351 89.7171 3.98277C90.2587 3.80256 90.71 3.44214 91.071 3.08172C91.7028 2.54109 92.3346 2.00046 92.9664 1.45983C93.508 1.0093 94.23 0.648883 94.8619 0.288462C95.8547 -0.162064 96.7573 -0.0719589 97.7501 0.468672C98.2014 0.738988 98.6527 1.0093 99.0138 1.36972C99.6456 1.91036 100.277 2.45099 100.999 2.99162C100.999 2.99162 100.999 2.99162 101.09 2.99162C100.819 3.08172 100.548 3.17183 100.277 3.35204C99.9163 3.53225 99.4651 3.71246 99.104 3.89267C98.382 4.16298 97.8404 4.70362 97.4794 5.33435C97.1183 5.87498 96.8476 6.50572 96.667 7.13646C96.306 7.9474 96.0352 8.75835 95.6742 9.6594C95.2229 10.9209 94.4106 11.912 93.3275 12.6329C92.4249 13.2636 91.5223 13.8042 90.5294 14.2548C89.7171 14.7053 88.9048 15.1558 88.0925 15.5162C87.8217 15.6964 87.6412 15.8767 87.3704 15.9668C86.8288 16.4173 86.5581 16.9579 86.5581 17.5887C86.4678 18.4897 86.7386 19.2106 87.2801 19.8413C87.8217 20.472 88.3632 21.0127 88.995 21.3731C89.2658 21.5533 89.6269 21.7335 89.9879 21.8236C90.2587 21.9137 90.5294 22.0038 90.8002 22.184C90.5294 22.3642 90.6197 22.4543 90.71 22.6345ZM70.4018 44.6202C67.5135 44.6202 64.6252 44.6202 61.7369 44.6202C60.2025 44.6202 58.6681 44.6202 57.0435 44.7103C55.0578 44.8905 53.6136 46.7827 53.7039 48.7651C53.7942 50.8375 55.4188 52.6396 57.4045 52.6396C63.0908 52.6396 68.7771 52.7297 74.5537 52.6396C77.0809 52.6396 78.7056 50.8375 78.7056 48.3145C78.7056 46.0619 78.7056 43.8093 78.7056 41.5566C78.7056 39.3941 77.6225 38.0425 75.5465 37.4118C71.3946 36.2404 67.2427 35.0691 63.0006 33.8076C62.6395 33.7175 62.1882 33.5373 61.8272 33.4472C61.8272 33.3571 61.8272 33.267 61.9174 33.1769C62.2785 33.1769 62.6395 33.1769 63.0908 33.1769C66.9719 33.1769 70.8531 33.1769 74.7342 33.1769C76.9906 33.1769 78.8861 31.3748 78.7958 29.2122C78.7958 27.0497 77.0809 25.1575 74.8244 25.1575C69.0479 25.1575 63.2713 25.1575 57.4948 25.1575C55.2383 25.1575 53.6137 26.9596 53.6137 29.2122C53.6137 31.555 53.6137 33.8076 53.6137 36.1503C53.6137 38.403 54.6968 39.8446 56.863 40.4754C59.3902 41.1962 62.0077 41.9171 64.5349 42.6379C66.5206 43.1785 68.4161 43.8093 70.4018 44.3499C70.4018 44.5301 70.4018 44.6202 70.4018 44.6202ZM144.594 44.6202C146.49 44.6202 148.385 44.6202 150.281 44.6202C153.169 44.7103 155.064 47.0531 154.342 49.6661C153.891 51.3781 152.357 52.6396 150.551 52.6396C147.212 52.6396 143.872 52.6396 140.442 52.6396C138.186 52.6396 136.471 50.9276 136.471 48.6749C136.381 42.0973 136.471 35.6097 136.471 29.032C136.471 26.9596 138.186 25.2476 140.352 25.2476C142.879 25.1575 145.407 25.2476 147.934 25.2476C149.107 25.2476 150.1 25.6981 150.822 26.5992C154.884 31.4649 158.946 36.3305 163.007 41.1962C163.729 42.0072 164 42.9983 164 44.0796C164 45.6114 164 47.1432 164 48.7651C164 51.1078 162.285 52.8198 160.029 52.8198C157.862 52.8198 155.786 51.0177 156.057 48.8552C156.509 45.6114 154.613 43.6291 152.808 41.5566C150.732 39.1238 148.656 36.6009 146.58 34.0779C146.039 33.3571 145.497 33.1769 144.594 33.4472C144.594 37.0514 144.594 40.7457 144.594 44.6202ZM88.5438 33.3571C88.5438 37.0514 88.5438 40.7457 88.5438 44.6202C88.8145 44.6202 89.1756 44.7103 89.4463 44.7103C91.071 44.7103 92.7859 44.7103 94.4106 44.7103C96.7573 44.8004 98.4722 46.6025 98.4722 48.8552C98.4722 51.0177 96.5768 52.7297 94.3203 52.7297C91.071 52.7297 87.8217 52.7297 84.6626 52.7297C82.3159 52.7297 80.601 51.1078 80.5107 48.7651C80.4205 42.1874 80.5107 35.5196 80.5107 28.9419C80.5107 26.9596 82.2256 25.2476 84.3016 25.2476C86.8288 25.1575 89.4463 25.2476 91.9736 25.2476C93.1469 25.2476 94.1398 25.6981 94.8619 26.5992C98.9235 31.4649 102.985 36.3305 107.047 41.1962C107.588 41.9171 107.859 42.9983 107.949 43.8994C108.13 45.5213 108.04 47.1432 107.949 48.7651C107.949 51.0177 106.144 52.7297 103.978 52.7297C101.812 52.7297 100.007 51.0177 99.9163 48.7651C99.9163 48.6749 99.9163 48.6749 99.9163 48.5848C100.368 46.152 99.2845 44.2598 97.6599 42.5478C95.1326 39.8446 92.8762 36.8712 90.5294 33.9878C89.9879 33.3571 89.4463 32.9966 88.5438 33.3571ZM126.723 37.9524C125.189 39.2139 124.106 40.5655 122.12 40.5655C120.315 40.5655 119.141 39.2139 117.788 38.0425C117.788 38.5832 117.697 38.8535 117.697 39.2139C117.697 42.1874 117.697 45.2509 117.697 48.2244C117.697 50.4771 116.614 52.0088 114.719 52.5495C112.011 53.3604 109.574 51.3781 109.574 48.4947C109.574 44.7103 109.574 40.9259 109.574 37.1415C109.574 34.6185 109.574 32.0956 109.574 29.6628C109.574 27.8606 110.296 26.419 111.921 25.6981C113.636 24.8872 115.17 25.3377 116.614 26.5091C118.329 27.9508 120.044 29.4825 121.759 30.9242C121.939 31.0143 122.03 31.1945 122.3 31.2846C124.196 29.6628 126.091 27.9508 127.987 26.419C130.243 24.5268 133.402 25.1575 134.485 27.8606C134.666 28.4013 134.846 29.1221 134.846 29.7529C134.846 36.1503 134.846 42.5478 134.846 48.9453C134.846 51.1979 133.132 52.9099 130.965 53C128.709 53 126.904 51.288 126.904 48.9453C126.904 45.7916 126.904 42.6379 126.904 39.4842C126.723 38.8535 126.723 38.4931 126.723 37.9524ZM34.8398 44.5301C37.9086 44.5301 40.7969 44.5301 43.8657 44.5301C43.8657 44.1697 43.8657 43.7192 43.8657 43.3587C43.8657 38.6733 43.8657 34.0779 43.8657 29.3924C43.8657 26.9596 45.4904 25.1575 47.7468 25.0674C50.1838 24.9773 51.8987 26.6893 51.8987 29.2122C51.8987 35.6097 51.8987 42.0973 51.8987 48.4947C51.8987 50.8375 50.0936 52.5495 47.7468 52.5495C42.0605 52.5495 36.3742 52.5495 30.6879 52.5495C28.4315 52.5495 26.7166 50.8375 26.7166 48.4947C26.7166 42.0072 26.7166 35.4295 26.7166 28.9419C26.7166 26.8695 28.5217 25.0674 30.5977 25.0674C32.8542 25.0674 34.6593 26.5992 34.7496 28.8518C34.8398 32.0055 34.7496 35.2493 34.7496 38.403C34.8398 40.4754 34.8398 42.4577 34.8398 44.5301ZM18.2323 39.0337C20.2179 41.3764 22.1134 43.6291 24.0088 45.9718C26.0848 48.4947 24.9114 52.0989 21.8426 52.7297C20.3985 53 19.1348 52.6396 18.142 51.4682C15.344 48.1343 12.6362 44.8905 9.92845 41.5566C8.57457 39.9347 8.57457 37.9524 10.0187 36.2404C12.6362 32.9966 15.344 29.843 18.0517 26.5992C19.4959 24.8872 21.9329 24.6169 23.6478 25.9684C25.3627 27.32 25.6335 29.7529 24.2796 31.555C22.4744 33.8076 20.6692 35.9701 18.8641 38.1326C18.5933 38.4931 18.4128 38.6733 18.2323 39.0337ZM0 38.8535C0 35.6998 0 32.5461 0 29.3924C0 27.1398 1.62466 25.3377 3.79086 25.2476C5.95707 25.0674 7.76225 26.6893 8.03302 28.9419C8.03302 29.2122 8.03302 29.4825 8.03302 29.7529C8.03302 35.88 8.03302 42.0072 8.03302 48.1343C8.03302 49.2156 7.8525 50.2968 7.13044 51.1078C5.86681 52.5495 4.42267 53 2.6175 52.3693C1.0831 51.8286 0 50.3869 0 48.6749C0 45.3411 0 42.0973 0 38.8535Z" fill="#969696"/>
</svg>
