<svg width="187" height="43" viewBox="0 0 187 43" fill="none" xmlns="http://www.w3.org/2000/svg">
<path d="M168.6 18.9C165.7 17.1 162.7 17.4 159.9 19.1C156.2 21.3 154.4 24.8 154 29C153.8 30.6 153.1 31.7 152 32.7C151.7 33 151.1 33.1 150.7 33.3C150.5 32.8 150.3 32.4 150.1 31.9C150 31.6 150.1 31.2 150.2 30.9C150.8 27.9 151.4 24.8 152 21.8C152.7 18.5 153.4 15.3 154.1 12C154.4 10.5 153.8 9.5 152.5 9.2C151.3 9 150.4 9.6 150 11C149.8 11.5 149.8 12.1 149.6 12.6C149.1 14.8 148.6 17 148.1 19.3C145.6 18 144.5 17.8 142.8 18C138.4 18.7 135.7 21.5 133.9 25.4C132.9 27.8 131.7 30.1 130.5 32.4C130.2 32.9 129.4 33 128.8 33.3C128.7 32.7 128.4 32.1 128.5 31.5C128.9 28.9 129.3 26.3 129.9 23.7C130.5 21.1 130 19.7 126.9 18.4C125.9 18 124.8 17.8 123.7 17.8C118.9 17.8 115.7 20.4 113.3 24.5C111.7 27.3 109.7 29.9 107.9 32.5C107.6 32.9 106.9 33.1 106.4 33.3C106.1 32.8 105.7 32.3 105.6 31.8C105.3 30.1 104.4 28.2 104.9 26.9C105.4 25.5 107.3 24.6 108.6 23.5C109.5 22.7 110.6 22 111.4 21C111.8 20.5 111.9 19.2 111.5 18.7C111.1 18.2 110 18.1 109.2 18.1C108.6 18.1 108.1 18.7 107.6 19.1C105.5 20.8 103.5 22.5 101.5 24.2C100.8 24.7 100.2 25.3 99.3001 26C99.4001 25.4 99.4001 25.1 99.5001 24.8C100.4 20.6 101.3 16.3 102.2 12.1C102.5 10.5 102.1 9.6 100.8 9.2C99.5001 8.8 98.5001 9.6 98.0001 11.1C97.9001 11.4 97.8001 11.8 97.8001 12.1C96.9001 16.4 95.9001 20.8 95.0001 25.1C94.3001 28.2 93.6001 31.3 93.0001 34.5C92.9001 35.3 93.0001 36.4 93.5001 36.9C93.9001 37.3 95.2001 37.5 95.7001 37.2C96.4001 36.8 97.1001 35.8 97.2001 35C97.4001 32.3 99.2001 30.9 101.4 29.6C101.7 31 102 32.3 102.2 33.6C102.5 35.2 103.1 36.8 104.8 37.3C106.6 37.8 108.2 37.3 109.4 35.9C110.4 34.9 111.2 33.8 112.2 32.7C113.2 35.5 114.9 37.3 118 37.4C121 37.5 123 35.9 124.6 33.6C125.2 36.5 126.4 37.5 128.7 37.4C131 37.3 132.3 35.5 133.6 33.9C135 36.5 137 37.7 139.8 37.4C142.5 37.2 144.2 35.5 145.9 33.3C146 35.3 146.6 36.7 148.3 37.2C151.1 38 153.1 36.6 154.8 34.6C159.1 38.7 164.6 38.3 168.4 33.7C170.1 31.6 171.1 29.2 171.4 26.5C171.9 23.4 171.3 20.6 168.6 18.9ZM126.1 22.9C125.2 25.6 124.4 28.3 123.3 30.9C122.7 32.3 121.4 33.2 119.8 33.4C118.3 33.6 117 32.9 116.7 31.5C115.8 27.5 118.5 22.1 122.9 21.6C123.1 21.6 123.4 21.6 123.8 21.5C124.3 21.6 125 21.7 125.6 22C125.8 22.1 126.2 22.6 126.1 22.9ZM147.3 23.5C146.7 26.3 145.8 29 144 31.2C143.7 31.5 143.4 31.9 143.1 32.2C141.9 33.2 140.6 33.8 139.1 33.1C137.7 32.4 137.6 31 137.6 29.6C137.8 26.7 138.8 24.3 141.2 22.5C142.9 21.3 144.8 21.1 146.7 22.1C147 22.3 147.4 23.1 147.3 23.5ZM167.2 25.3C167.2 27.9 166.4 29.9 164.9 31.6C164.5 32 164 32.4 163.5 32.7C161 34.3 158.4 33 158.3 30.1C158.2 27.3 159.1 24.8 161.3 22.9C162.5 21.8 164 21.3 165.6 22C167.1 22.7 167.3 24.2 167.2 25.3ZM67.9001 16.5C67.3001 12.2 64.8001 9.6 59.9001 8.9C57.7001 8.6 55.3001 8.8 53.1001 9C50.8001 9.2 50.4001 9.7 49.9001 11.9C48.7001 17.5 47.5001 23.1 46.3001 28.7C45.8001 30.9 45.4001 33.2 45.0001 35.4C44.8001 36.5 45.4001 37.2 46.5001 37.5C47.6001 37.7 48.5001 37.3 48.9001 36.3C49.1001 35.8 49.2001 35.3 49.3001 34.7C49.7001 32.8 50.1001 30.9 50.6001 29C51.6001 29 52.4001 29 53.2001 29C56.4001 29.1 59.6001 28.8 62.5001 27.3C66.3001 25.1 68.5001 20.9 67.9001 16.5ZM60.6001 23.6C57.8001 25.2 54.7001 25.2 51.5001 24.8C52.3001 21 53.1001 17.4 53.9001 13.8C54.0001 13.4 54.5001 12.8 54.9001 12.7C56.5001 12.6 58.1001 12.6 59.7001 12.8C61.9001 13.1 63.3001 14.6 63.7001 16.8C64.0001 19.6 62.9001 22.2 60.6001 23.6ZM83.4001 20.8C81.5001 17.4 76.7001 16.7 72.9001 19C69.1001 21.3 67.2001 25 66.9001 29.3C66.6001 35.7 71.7001 39.2 77.5001 36.6C82.3001 34.4 84.2001 30.3 84.6001 24.6C84.4001 23.7 84.2001 22.1 83.4001 20.8ZM80.2001 25.6C80.1001 28.2 79.2001 30.6 77.1001 32.3C75.9001 33.4 74.4001 33.8 72.9001 33.1C71.4001 32.4 71.1001 30.9 71.2001 29.4C71.4001 26.9 72.2001 24.6 74.2001 22.9C75.4001 21.8 76.9001 21.3 78.5001 22C80.0001 22.8 80.2001 24.1 80.2001 25.6ZM181.3 14.9C181.6 13.2 181.2 12.2 179.9 11.9C178.5 11.5 177.6 12.2 177.1 13.9C177 14.4 176.9 14.9 176.8 15.4C176.3 17.9 176.3 17.9 173.9 18.3C172.7 18.5 172.1 19.3 172.1 20.5C172.1 21.7 173 21.9 174 22C174.4 22 174.8 22.1 175.3 22.1C175.2 22.6 175.1 23 175.1 23.5C174.6 26.2 174 28.9 173.7 31.6C173.4 34.4 174.8 36.5 177 37.2C180.3 38.3 185.5 35.6 186.4 32.3C186.6 31.7 186.3 30.6 185.8 30.3C185.4 30 184.3 30.2 183.7 30.5C182.8 31 182.3 32.1 181.4 32.6C180.7 33 179.6 33.4 178.9 33.2C178.5 33.1 178.1 31.7 178.2 31C178.6 28.4 179.2 25.8 179.6 23.2C179.7 22.3 180.1 22 181 22.1C182.2 22.2 183.4 22.2 184.6 22C185.8 21.9 186.4 21.1 186.4 19.8C186.4 18.5 185.5 18.3 184.4 18.3C183.3 18.3 182.1 18.3 180.7 18.3C180.9 16.9 181.1 15.9 181.3 14.9ZM93.2001 9.1C92.1001 8.8 91.2001 9.3 90.8001 10.3C90.6001 10.7 90.5001 11.1 90.4001 11.6C89.9001 13.7 89.5001 15.9 89.0001 18C87.8001 23.5 86.6001 29.1 85.4001 34.7C85.0001 36.6 86.3001 37.9 88.0001 37.2C88.7001 36.9 89.3001 36 89.5001 35.2C90.6001 30.6 91.5001 26.1 92.5001 21.5C93.2001 18.1 94.0001 14.7 94.7001 11.3C94.8001 10.1 94.3001 9.4 93.2001 9.1ZM21.2001 42.9C19.4001 42.9 17.7001 42.6 16.0001 41.7C15.2001 41.3 14.4001 40.7 13.9001 39.9C13.3001 38.9 13.3001 37.8 13.9001 36.8C14.5001 35.9 15.3001 35.3 16.3001 34.8C17.6001 34.2 18.9001 33.9 20.3001 33.8C22.2001 33.7 24.1001 33.9 25.9001 34.7C26.7001 35.1 27.5001 35.5 28.1001 36.2C29.3001 37.6 29.3001 39.2 28.0001 40.5C27.1001 41.4 26.1001 41.9 24.9001 42.3C23.7001 42.8 22.5001 42.9 21.2001 42.9ZM11.8001 8.3C11.3001 6.5 9.90008 5.6 8.20008 6C7.20008 6.2 6.40008 6.6 5.60008 7.2C3.20008 9.2 1.70008 11.7 1.10008 14.7C0.900081 15.7 0.900081 16.8 1.20008 17.8C1.60008 19.2 2.80008 20.1 4.20008 20C5.20008 19.9 6.00008 19.6 6.80008 19.1C8.50008 18 9.70008 16.5 10.6001 14.7C11.4001 13.2 11.9001 11.5 12.0001 9.8C12.0001 9.3 12.0001 8.8 11.8001 8.3ZM41.2001 14.4C40.8001 12.4 39.9001 10.6 38.6001 9C37.7001 7.8 36.6001 6.9 35.2001 6.2C34.5001 6 33.8001 5.8 33.0001 6C31.8001 6.2 31.1001 6.9 30.7001 8C30.3001 9.1 30.3001 10.2 30.5001 11.2C31.0001 13.8 32.2001 16.1 34.1001 17.9C35.0001 18.8 36.1001 19.6 37.4001 19.9C39.2001 20.3 40.6001 19.5 41.2001 17.8C41.4001 17.2 41.4001 16.7 41.4001 16.1C41.4001 15.5 41.3001 15 41.2001 14.4ZM17.5001 0.6C16.3001 1 15.2001 1.5 14.4001 2.4C13.2001 3.7 13.2001 5.3 14.4001 6.6C14.8001 7 15.3001 7.4 15.8001 7.7C17.0001 8.4 18.4001 8.8 19.8001 8.9C21.6001 9.1 23.3001 9 25.0001 8.4C26.2001 8 27.3001 7.5 28.2001 6.5C29.3001 5.3 29.4001 3.8 28.3001 2.5C27.9001 2 27.3001 1.6 26.8001 1.2C25.0001 0.4 23.1001 0 21.3001 0C20.0001 0 18.7001 0.2 17.5001 0.6ZM1.10008 28.2C1.60008 30.8 2.80008 33 4.60008 34.9C5.50008 35.8 6.60008 36.6 7.90008 36.9C9.80008 37.4 11.3001 36.5 11.8001 34.7C12.1001 33.6 12.1001 32.6 11.8001 31.5C11.3001 29 10.1001 26.8 8.30008 25C7.30008 24 6.20008 23.3 4.80008 23C3.30008 22.7 2.00008 23.3 1.40008 24.7C1.10008 25.4 1.00008 26.1 1.00008 26.7C1.00008 27.3 1.00008 27.7 1.10008 28.2ZM41.2001 25.2C40.7001 23.4 39.3001 22.5 37.5001 22.9C36.4001 23.1 35.5001 23.7 34.6001 24.4C32.4001 26.3 31.0001 28.8 30.5001 31.6C30.3001 32.7 30.3001 33.8 30.7001 34.8C31.2001 36.2 32.3001 37 33.7001 36.9C34.6001 36.8 35.4001 36.5 36.1001 36C37.8001 34.9 39.0001 33.5 39.9001 31.7C40.8001 30.1 41.3001 28.5 41.3001 26.7C41.4001 26.3 41.3001 25.8 41.2001 25.2Z" fill="#969696"/>
</svg>
