<svg width="53" height="53" viewBox="0 0 53 53" fill="none" xmlns="http://www.w3.org/2000/svg">
<path d="M26.5 0C11.872 0 0 11.872 0 26.5C0 41.128 11.872 53 26.5 53C41.128 53 53 41.128 53 26.5C53 11.872 41.128 0 26.5 0ZM32.5067 42.7533C29.15 46.746 23.4613 47.17 19.6453 43.778C16.0767 40.5627 15.688 34.98 18.9033 31.5173C22.684 34.6973 26.4647 37.842 30.2453 41.022C30.8813 41.552 31.5527 41.976 32.224 42.4707C30.2807 37.1 28.3727 31.7647 26.4293 26.394L26.394 26.4293C26.394 26.394 26.394 26.394 26.3587 26.3587C25.334 26.4293 24.3447 26.5353 23.32 26.5353C19.186 26.5353 15.7587 23.8147 14.6987 19.7867C13.7093 15.9353 15.5113 11.8367 19.0093 9.858C19.8573 9.36333 20.67 8.798 21.4473 8.162C25.016 5.3 30.104 5.512 33.3547 8.692C36.6407 11.9073 36.9587 16.8893 33.92 20.7407C29.574 17.1013 25.228 13.462 20.882 9.82267C20.776 9.858 20.7053 9.92867 20.5993 9.964C21.094 11.342 21.5887 12.72 22.0833 14.1333C23.532 18.1967 24.9453 22.2953 26.394 26.3587H26.4293C26.4293 26.3587 26.394 26.394 26.394 26.4293L26.4293 26.3587V26.394C27.984 25.2633 29.7153 25.4753 31.4113 25.8287C35.298 26.6413 38.0893 29.998 38.372 34.0967C38.584 37.9127 36.1107 41.552 32.5067 42.7533Z" fill="#969696"/>
</svg>
