<svg width="97" height="98" viewBox="0 0 97 98" fill="none" xmlns="http://www.w3.org/2000/svg">
<g clip-path="url(#clip0_359_3737)">
<path d="M13.3608 23.5826C13.3608 17.5666 18.3935 12.6937 24.6246 12.6937H32.7728V0H24.5646C11.144 0 0.239746 10.5279 0.239746 23.5826V33.0276H13.3608V23.5826Z" fill="#2E2E2E"/>
<path d="M12.6418 73.3346V65.1529H0V73.3346C0 86.8705 10.4849 97.8195 23.4861 97.8195H32.8925V84.6446H23.4861C17.4948 84.6446 12.6418 79.5912 12.6418 73.3346Z" fill="#2E2E2E"/>
<path d="M83.6991 74.4174C83.6991 80.4334 78.6664 85.3063 72.4353 85.3063H64.2871V98H72.4353C85.9159 98 96.8202 87.4721 96.8202 74.4174V64.9724H83.6991V74.4174Z" fill="#2E2E2E"/>
<path d="M73.5138 0.240631H64.1074V13.4156H73.5138C79.5052 13.4156 84.3582 18.469 84.3582 24.7256V32.9073H96.9999V24.6654C96.9999 11.1897 86.5151 0.240631 73.5138 0.240631Z" fill="#2E2E2E"/>
<path d="M20.9099 44.7587H40.2021C42.7784 42.1719 46.3732 40.5476 50.3275 40.5476C54.2817 40.5476 57.8766 42.1719 60.4528 44.7587H79.745C75.5511 32.4862 63.9278 23.7029 50.3275 23.7029C36.7271 23.7029 25.1039 32.4862 20.9099 44.7587Z" fill="#2E2E2E"/>
<path d="M50.3275 47.7667C36.6672 47.7667 25.1039 56.55 20.9099 68.8226H40.2021C42.7784 66.2357 46.3732 64.6114 50.3275 64.6114C54.2817 64.6114 57.8766 66.2357 60.4528 68.8226H79.745C75.5511 56.55 63.9877 47.7667 50.3275 47.7667Z" fill="#2E2E2E"/>
</g>
<defs>
<clipPath id="clip0_359_3737">
<rect width="97" height="98" fill="white"/>
</clipPath>
</defs>
</svg>
