<svg xmlns="http://www.w3.org/2000/svg" width="500" height="500" style="width:100%;height:100%;transform:translate3d(0,0,0);content-visibility:visible" viewBox="0 0 500 500"><defs><clipPath id="a"><path d="M0 0h500v500H0z"/></clipPath><clipPath id="c"><path d="M0 0h500v500H0z"/></clipPath><clipPath id="b"><path d="M0 0h500v500H0z"/></clipPath></defs><g clip-path="url(#a)"><g clip-path="url(#b)" style="display:block"><path fill="none" class="primary design" style="display:none"/><g fill="none" class="primary design" style="display:none"><path/><path/></g><path fill="none" class="primary design" style="display:none"/><g fill="#121330" class="primary design" style="display:block"><path d="M401.046 268.601c-8.644 0-15.65 7.007-15.65 15.65v116.794a5.189 5.189 0 0 1-5.183 5.183H98.961a5.189 5.189 0 0 1-5.183-5.183V119.793a5.189 5.189 0 0 1 5.183-5.183h116.794c8.644 0 15.65-7.007 15.65-15.65s-7.006-15.65-15.65-15.65H98.961c-20.117 0-36.483 16.366-36.483 36.483v281.252c0 20.117 16.366 36.483 36.483 36.483h281.252c20.117 0 36.483-16.366 36.483-36.483V284.251c0-8.643-7.006-15.65-15.65-15.65z"/><path d="M437.529 78.131c0-.057-.007-.112-.008-.169a15.76 15.76 0 0 0-.07-1.374c-.023-.237-.067-.468-.101-.702-.039-.272-.07-.545-.124-.815-.051-.255-.121-.503-.184-.754-.062-.246-.116-.493-.19-.736-.072-.237-.161-.465-.244-.697-.089-.252-.172-.504-.275-.752-.086-.206-.187-.403-.281-.605-.123-.264-.241-.529-.379-.787-.096-.179-.205-.348-.308-.522-.156-.266-.309-.534-.482-.793-.113-.168-.24-.325-.359-.489-.182-.249-.357-.501-.555-.742-.163-.198-.344-.381-.516-.571-.17-.187-.327-.381-.508-.562-.208-.208-.431-.39-.647-.584-.16-.144-.312-.296-.478-.433-.275-.227-.562-.429-.848-.634-.127-.091-.247-.19-.376-.277-.299-.201-.609-.379-.918-.557-.131-.076-.258-.159-.391-.231-.308-.166-.624-.309-.94-.453-.148-.068-.293-.143-.444-.206-.314-.131-.634-.24-.954-.349-.164-.056-.323-.12-.489-.171a15.64 15.64 0 0 0-1.017-.262c-.157-.037-.309-.082-.468-.114a15.601 15.601 0 0 0-1.289-.197c-.076-.009-.149-.024-.225-.032a15.521 15.521 0 0 0-1.656-.08l-114.733-.003c-8.643 0-15.649 7.006-15.65 15.649 0 8.643 7.006 15.65 15.65 15.65l77.02.003-142.699 142.69c-6.111 6.111-6.111 16.021 0 22.133a15.6 15.6 0 0 0 11.067 4.583c4.005 0 8.01-1.527 11.065-4.583l142.704-142.696v77.014c0 8.644 7.007 15.65 15.651 15.65s15.65-7.007 15.65-15.65l-.001-114.79z"/></g><g class="primary design" style="display:none"><path/><path/></g></g><g clip-path="url(#c)" opacity="0" style="display:block"><path fill="none" class="primary design" style="display:none"/><path fill="none" class="primary design" style="display:none"/><g class="primary design" style="display:none"><path/><path/></g></g><g class="com" style="display:none"><path/><path/><path/><path/><path/><path/><path/><path/><path/><path/><path/><path/></g></g></svg>