<svg width="97" height="96" viewBox="0 0 97 96" fill="none" xmlns="http://www.w3.org/2000/svg">
<path d="M23.7925 0C10.6608 0 0 10.6608 0 23.7925C0 36.9241 10.6608 47.5849 23.7925 47.5849C36.9241 47.5849 47.5849 36.9241 47.5849 23.7925C47.5849 10.6608 36.9241 0 23.7925 0ZM23.7925 34.7736C17.7071 34.7736 12.8113 29.8778 12.8113 23.7925C12.8113 17.7071 17.7071 12.8113 23.7925 12.8113C29.8778 12.8113 34.7736 17.7071 34.7736 23.7925C34.7736 29.8778 29.8778 34.7736 23.7925 34.7736Z" fill="#2E2E2E"/>
<path d="M44.6109 68.1745H36.6039C32.0741 68.1745 28.368 64.4684 28.368 59.9387V51.2453C26.9039 51.5198 25.3482 51.7028 23.7925 51.7028C22.0539 51.7028 20.3609 51.5198 18.7595 51.1538V59.9387C18.7595 69.7759 26.7666 77.783 36.6039 77.783H45.2515C44.7024 75.7241 44.3822 73.6193 44.3822 71.3774C44.3822 70.2792 44.4737 69.2269 44.6109 68.1745Z" fill="#2E2E2E"/>
<path d="M52.3433 27.4528H60.8537C65.3834 27.4528 69.0895 31.159 69.0895 35.6887V44.2906C70.4164 44.0618 71.789 43.9245 73.2074 43.9245C75.0834 43.9245 76.9136 44.1533 78.698 44.5651V35.6887C78.698 25.8514 70.6909 17.8443 60.8537 17.8443H51.8857C52.389 19.766 52.6178 21.7335 52.6178 23.7925C52.6178 25.0278 52.5263 26.2632 52.3433 27.4528Z" fill="#2E2E2E"/>
<path d="M73.2075 47.5849C60.0759 47.5849 49.415 58.2458 49.415 71.3774C49.415 84.509 60.0759 95.1698 73.2075 95.1698C86.3391 95.1698 96.9999 84.509 96.9999 71.3774C96.9999 58.2458 86.3391 47.5849 73.2075 47.5849ZM73.2075 82.3585C67.1221 82.3585 62.2264 77.4627 62.2264 71.3774C62.2264 65.292 67.1221 60.3962 73.2075 60.3962C79.2929 60.3962 84.1886 65.292 84.1886 71.3774C84.1886 77.4627 79.2929 82.3585 73.2075 82.3585Z" fill="#2E2E2E"/>
</svg>
